IBM Plex Sans Thai-Bold.ufo
<glyph name="hyphen" format="1">
  <advance width="403"/>
  <unicode hex="002D"/>
  <outline>
    <contour>
      <point x="350" y="233" type="line" name="hr00"/>
      <point x="350" y="377" type="line"/>
      <point x="53" y="377" type="line"/>
      <point x="53" y="233" type="line"/>
    </contour>
  </outline>
</glyph>
<glyph name="zero" format="1">
  <advance width="600"/>
  <unicode hex="0030"/>
  <outline>
    <contour>
      <point x="300" y="-12" type="curve" smooth="yes" name="hr00"/>
      <point x="483" y="-12"/>
      <point x="569" y="121"/>
      <point x="569" y="349" type="curve" smooth="yes"/>
      <point x="569" y="577"/>
      <point x="483" y="710"/>
      <point x="300" y="710" type="curve" smooth="yes"/>
      <point x="117" y="710"/>
      <point x="31" y="577"/>
      <point x="31" y="349" type="curve" smooth="yes"/>
      <point x="31" y="121"/>
      <point x="117" y="-12"/>
    </contour>
    <contour>
      <point x="300" y="115" type="curve" smooth="yes"/>
      <point x="220" y="115"/>
      <point x="194" y="177"/>
      <point x="194" y="283" type="curve" smooth="yes"/>
      <point x="194" y="415" type="line" smooth="yes"/>
      <point x="194" y="521"/>
      <point x="220" y="583"/>
      <point x="300" y="583" type="curve" smooth="yes"/>
      <point x="380" y="583"/>
      <point x="406" y="521"/>
      <point x="406" y="415" type="curve" smooth="yes"/>
      <point x="406" y="283" type="line" smooth="yes"/>
      <point x="406" y="177"/>
      <point x="380" y="115"/>
    </contour>
  </outline>
</glyph>
<glyph name="backslash" format="1">
  <advance width="460"/>
  <unicode hex="005C"/>
  <outline>
    <contour>
      <point x="456" y="-151" type="line" name="hr00"/>
      <point x="158" y="740" type="line"/>
      <point x="36" y="740" type="line"/>
      <point x="334" y="-151" type="line"/>
    </contour>
  </outline>
</glyph>
<glyph name="bracketright" format="1">
  <advance width="334"/>
  <unicode hex="005D"/>
  <outline>
    <contour>
      <point x="50" y="760" type="line" name="hr00"/>
      <point x="50" y="656" type="line"/>
      <point x="120" y="656" type="line"/>
      <point x="120" y="-34" type="line"/>
      <point x="50" y="-34" type="line"/>
      <point x="50" y="-138" type="line"/>
      <point x="257" y="-138" type="line"/>
      <point x="257" y="760" type="line"/>
    </contour>
  </outline>
</glyph>
<glyph name="registered" format="1">
  <advance width="464"/>
  <unicode hex="00AE"/>
  <outline>
    <contour>
      <point x="232" y="298" type="curve" smooth="yes" name="hr00"/>
      <point x="345" y="298"/>
      <point x="434" y="386"/>
      <point x="434" y="504" type="curve" smooth="yes"/>
      <point x="434" y="622"/>
      <point x="345" y="710"/>
      <point x="232" y="710" type="curve" smooth="yes"/>
      <point x="119" y="710"/>
      <point x="30" y="622"/>
      <point x="30" y="504" type="curve" smooth="yes"/>
      <point x="30" y="386"/>
      <point x="119" y="298"/>
    </contour>
    <contour>
      <point x="232" y="345" type="curve" smooth="yes"/>
      <point x="152" y="345"/>
      <point x="84" y="398"/>
      <point x="84" y="488" type="curve" smooth="yes"/>
      <point x="84" y="520" type="line" smooth="yes"/>
      <point x="84" y="610"/>
      <point x="152" y="663"/>
      <point x="232" y="663" type="curve" smooth="yes"/>
      <point x="312" y="663"/>
      <point x="380" y="610"/>
      <point x="380" y="520" type="curve" smooth="yes"/>
      <point x="380" y="488" type="line" smooth="yes"/>
      <point x="380" y="398"/>
      <point x="312" y="345"/>
    </contour>
    <contour>
      <point x="209" y="461" type="line"/>
      <point x="232" y="461" type="line"/>
      <point x="264" y="400" type="line"/>
      <point x="333" y="400" type="line"/>
      <point x="290" y="473" type="line"/>
      <point x="313" y="484"/>
      <point x="327" y="506"/>
      <point x="327" y="539" type="curve" smooth="yes"/>
      <point x="327" y="579"/>
      <point x="303" y="609"/>
      <point x="247" y="609" type="curve" smooth="yes"/>
      <point x="145" y="609" type="line"/>
      <point x="145" y="400" type="line"/>
      <point x="209" y="400" type="line"/>
    </contour>
    <contour>
      <point x="209" y="508" type="line"/>
      <point x="209" y="561" type="line"/>
      <point x="234" y="561" type="line" smooth="yes"/>
      <point x="252" y="561"/>
      <point x="262" y="554"/>
      <point x="262" y="538" type="curve" smooth="yes"/>
      <point x="262" y="531" type="line" smooth="yes"/>
      <point x="262" y="515"/>
      <point x="252" y="508"/>
      <point x="234" y="508" type="curve" smooth="yes"/>
    </contour>
  </outline>
</glyph>
<glyph name="Dcroat" format="1">
  <advance width="702"/>
  <unicode hex="0110"/>
  <outline>
    <contour>
      <point x="82" y="0" type="line" name="hr00"/>
      <point x="345" y="0" type="line" smooth="yes"/>
      <point x="530" y="0"/>
      <point x="652" y="117"/>
      <point x="652" y="349" type="curve" smooth="yes"/>
      <point x="652" y="581"/>
      <point x="530" y="698"/>
      <point x="345" y="698" type="curve" smooth="yes"/>
      <point x="82" y="698" type="line"/>
      <point x="82" y="411" type="line"/>
      <point x="7" y="411" type="line"/>
      <point x="7" y="297" type="line"/>
      <point x="82" y="297" type="line"/>
    </contour>
    <contour>
      <point x="234" y="135" type="line"/>
      <point x="234" y="297" type="line"/>
      <point x="353" y="297" type="line"/>
      <point x="353" y="411" type="line"/>
      <point x="234" y="411" type="line"/>
      <point x="234" y="563" type="line"/>
      <point x="345" y="563" type="line" smooth="yes"/>
      <point x="435" y="563"/>
      <point x="491" y="514"/>
      <point x="491" y="403" type="curve" smooth="yes"/>
      <point x="491" y="295" type="line" smooth="yes"/>
      <point x="491" y="184"/>
      <point x="435" y="135"/>
      <point x="345" y="135" type="curve" smooth="yes"/>
    </contour>
  </outline>
</glyph>
<glyph name="tildecomb" format="1">
  <advance width="0"/>
  <unicode hex="0303"/>
  <outline>
    <contour>
      <point x="76" y="619" type="curve" smooth="yes" name="hr00"/>
      <point x="129" y="619"/>
      <point x="166" y="647"/>
      <point x="190" y="683" type="curve"/>
      <point x="138" y="751" type="line"/>
      <point x="117" y="734"/>
      <point x="102" y="726"/>
      <point x="79" y="726" type="curve" smooth="yes"/>
      <point x="53" y="726"/>
      <point x="30" y="736"/>
      <point x="1" y="748" type="curve" smooth="yes"/>
      <point x="-24" y="759"/>
      <point x="-46" y="768"/>
      <point x="-76" y="768" type="curve" smooth="yes"/>
      <point x="-129" y="768"/>
      <point x="-166" y="740"/>
      <point x="-190" y="704" type="curve"/>
      <point x="-138" y="636" type="line"/>
      <point x="-117" y="653"/>
      <point x="-102" y="661"/>
      <point x="-79" y="661" type="curve" smooth="yes"/>
      <point x="-53" y="661"/>
      <point x="-30" y="651"/>
      <point x="-1" y="639" type="curve" smooth="yes"/>
      <point x="24" y="628"/>
      <point x="46" y="619"/>
    </contour>
    <contour>
      <point x="0.0" y="558.0" type="move" name="_top"/>
    </contour>
  </outline>
</glyph>
<glyph name="macronbelowcomb" format="1">
  <advance width="0"/>
  <unicode hex="0331"/>
  <outline>
    <contour>
      <point x="-346" y="-207" type="line" name="hr00"/>
      <point x="-40" y="-207" type="line"/>
      <point x="-40" y="-104" type="line"/>
      <point x="-346" y="-104" type="line"/>
    </contour>
    <contour>
      <point x="0.0" y="0.0" type="move" name="_bottomright"/>
    </contour>
  </outline>
</glyph>
<glyph name="koKai-thai" format="1">
  <advance width="640"/>
  <unicode hex="0E01"/>
  <outline>
    <contour>
      <point x="117" y="0" type="line" name="hr00"/>
      <point x="265" y="0" type="line"/>
      <point x="265" y="280" type="line" smooth="yes"/>
      <point x="265" y="328"/>
      <point x="251" y="347"/>
      <point x="203" y="366" type="curve" smooth="yes"/>
      <point x="168" y="379" type="line"/>
      <point x="189" y="419"/>
      <point x="238" y="449"/>
      <point x="301" y="449" type="curve" smooth="yes"/>
      <point x="385" y="449"/>
      <point x="429" y="398"/>
      <point x="429" y="313" type="curve" smooth="yes"/>
      <point x="429" y="0" type="line"/>
      <point x="577" y="0" type="line"/>
      <point x="577" y="332" type="line" smooth="yes"/>
      <point x="577" y="474"/>
      <point x="476" y="566"/>
      <point x="314" y="566" type="curve" smooth="yes"/>
      <point x="153" y="566"/>
      <point x="42" y="473"/>
      <point x="30" y="326" type="curve"/>
      <point x="117" y="291" type="line"/>
    </contour>
    <contour>
      <point x="577.0" y="0.0" type="move" name="bottomright"/>
    </contour>
    <contour>
      <point x="306.0" y="558.0" type="move" name="top"/>
    </contour>
    <contour>
      <point x="577.0" y="600.0" type="move" name="topright"/>
    </contour>
  </outline>
</glyph>
<glyph name="khoKhai-thai" format="1">
  <advance width="570"/>
  <unicode hex="0E02"/>
  <outline>
    <contour>
      <point x="284" y="-12" type="curve" smooth="yes" name="hr00"/>
      <point x="425" y="-12"/>
      <point x="507" y="72"/>
      <point x="507" y="210" type="curve" smooth="yes"/>
      <point x="507" y="554" type="line"/>
      <point x="362" y="554" type="line"/>
      <point x="362" y="188" type="line" smooth="yes"/>
      <point x="362" y="138"/>
      <point x="332" y="109"/>
      <point x="281" y="109" type="curve" smooth="yes"/>
      <point x="231" y="109"/>
      <point x="201" y="139"/>
      <point x="201" y="190" type="curve" smooth="yes"/>
      <point x="201" y="217" type="line" smooth="yes"/>
      <point x="201" y="266"/>
      <point x="216" y="292"/>
      <point x="234" y="329" type="curve" smooth="yes"/>
      <point x="259" y="380"/>
      <point x="269" y="418"/>
      <point x="269" y="456" type="curve" smooth="yes"/>
      <point x="269" y="460" type="line" smooth="yes"/>
      <point x="269" y="517"/>
      <point x="227" y="554"/>
      <point x="152" y="554" type="curve" smooth="yes"/>
      <point x="41" y="554" type="line"/>
      <point x="41" y="433" type="line"/>
      <point x="126" y="433" type="line"/>
      <point x="126" y="426" type="line" smooth="yes"/>
      <point x="126" y="393"/>
      <point x="109" y="357"/>
      <point x="91" y="328" type="curve" smooth="yes"/>
      <point x="72" y="298"/>
      <point x="47" y="261"/>
      <point x="47" y="187" type="curve" smooth="yes"/>
      <point x="47" y="52"/>
      <point x="142" y="-12"/>
    </contour>
    <contour>
      <point x="507.0" y="0.0" type="move" name="bottomright"/>
    </contour>
    <contour>
      <point x="276.0" y="558.0" type="move" name="top"/>
    </contour>
    <contour>
      <point x="507.0" y="600.0" type="move" name="topright"/>
    </contour>
  </outline>
</glyph>
<glyph name="khoKhuat-thai" format="1">
  <advance width="610"/>
  <unicode hex="0E03"/>
  <outline>
    <contour>
      <point x="324" y="-12" type="curve" smooth="yes" name="hr00"/>
      <point x="465" y="-12"/>
      <point x="547" y="72"/>
      <point x="547" y="210" type="curve" smooth="yes"/>
      <point x="547" y="554" type="line"/>
      <point x="402" y="554" type="line"/>
      <point x="402" y="188" type="line" smooth="yes"/>
      <point x="402" y="138"/>
      <point x="372" y="109"/>
      <point x="321" y="109" type="curve" smooth="yes"/>
      <point x="271" y="109"/>
      <point x="241" y="139"/>
      <point x="241" y="190" type="curve" smooth="yes"/>
      <point x="241" y="220" type="line" smooth="yes"/>
      <point x="241" y="272"/>
      <point x="259" y="296"/>
      <point x="275" y="328" type="curve" smooth="yes"/>
      <point x="302" y="380"/>
      <point x="324" y="416"/>
      <point x="324" y="470" type="curve" smooth="yes"/>
      <point x="324" y="531"/>
      <point x="285" y="566"/>
      <point x="229" y="566" type="curve" smooth="yes"/>
      <point x="172" y="566"/>
      <point x="137" y="535"/>
      <point x="122" y="487" type="curve"/>
      <point x="117" y="487" type="line"/>
      <point x="117" y="561" type="line"/>
      <point x="17" y="561" type="line"/>
      <point x="17" y="402" type="line"/>
      <point x="108" y="402" type="line"/>
      <point x="112" y="446"/>
      <point x="125" y="471"/>
      <point x="161" y="471" type="curve" smooth="yes"/>
      <point x="182" y="471"/>
      <point x="198" y="457"/>
      <point x="198" y="434" type="curve" smooth="yes"/>
      <point x="198" y="407"/>
      <point x="181" y="387"/>
      <point x="148" y="346" type="curve" smooth="yes"/>
      <point x="114" y="304"/>
      <point x="87" y="259"/>
      <point x="87" y="187" type="curve" smooth="yes"/>
      <point x="87" y="52"/>
      <point x="182" y="-12"/>
    </contour>
    <contour>
      <point x="547.0" y="0.0" type="move" name="bottomright"/>
    </contour>
    <contour>
      <point x="321.0" y="558.0" type="move" name="top"/>
    </contour>
    <contour>
      <point x="547.0" y="600.0" type="move" name="topright"/>
    </contour>
  </outline>
</glyph>
<glyph name="khoRakhang-thai" format="1">
  <advance width="657"/>
  <unicode hex="0E06"/>
  <outline>
    <contour>
      <point x="416" y="-12" type="curve" smooth="yes" name="hr00"/>
      <point x="532" y="-12"/>
      <point x="594" y="67"/>
      <point x="594" y="206" type="curve" smooth="yes"/>
      <point x="594" y="554" type="line"/>
      <point x="446" y="554" type="line"/>
      <point x="446" y="219" type="line" smooth="yes"/>
      <point x="446" y="161"/>
      <point x="429" y="108"/>
      <point x="353" y="108" type="curve" smooth="yes"/>
      <point x="304" y="108"/>
      <point x="251" y="138"/>
      <point x="251" y="194" type="curve" smooth="yes"/>
      <point x="251" y="220" type="line" smooth="yes"/>
      <point x="251" y="272"/>
      <point x="269" y="296"/>
      <point x="285" y="328" type="curve" smooth="yes"/>
      <point x="312" y="380"/>
      <point x="334" y="416"/>
      <point x="334" y="470" type="curve" smooth="yes"/>
      <point x="334" y="531"/>
      <point x="295" y="566"/>
      <point x="239" y="566" type="curve" smooth="yes"/>
      <point x="182" y="566"/>
      <point x="147" y="535"/>
      <point x="132" y="487" type="curve"/>
      <point x="127" y="487" type="line"/>
      <point x="127" y="561" type="line"/>
      <point x="27" y="561" type="line"/>
      <point x="27" y="402" type="line"/>
      <point x="118" y="402" type="line"/>
      <point x="122" y="446"/>
      <point x="135" y="471"/>
      <point x="171" y="471" type="curve" smooth="yes"/>
      <point x="192" y="471"/>
      <point x="208" y="457"/>
      <point x="208" y="434" type="curve" smooth="yes"/>
      <point x="208" y="407"/>
      <point x="191" y="387"/>
      <point x="158" y="346" type="curve" smooth="yes"/>
      <point x="124" y="304"/>
      <point x="103" y="269"/>
      <point x="103" y="194" type="curve" smooth="yes"/>
      <point x="103" y="0" type="line"/>
      <point x="251" y="0" type="line"/>
      <point x="251" y="93" type="line"/>
      <point x="256" y="93" type="line"/>
      <point x="275" y="39"/>
      <point x="321" y="-12"/>
    </contour>
    <contour>
      <point x="594.0" y="0.0" type="move" name="bottomright"/>
    </contour>
    <contour>
      <point x="350.0" y="558.0" type="move" name="top"/>
    </contour>
    <contour>
      <point x="594.0" y="600.0" type="move" name="topright"/>
    </contour>
  </outline>
</glyph>
<glyph name="choChing-thai" format="1">
  <advance width="608"/>
  <unicode hex="0E09"/>
  <outline>
    <contour>
      <point x="238" y="-12" type="curve" smooth="yes" name="hr00"/>
      <point x="320" y="-12"/>
      <point x="372" y="43"/>
      <point x="394" y="103" type="curve"/>
      <point x="401" y="103" type="line"/>
      <point x="403" y="33"/>
      <point x="435" y="0"/>
      <point x="494" y="0" type="curve" smooth="yes"/>
      <point x="583" y="0" type="line"/>
      <point x="583" y="115" type="line"/>
      <point x="534" y="115" type="line"/>
      <point x="534" y="347" type="line" smooth="yes"/>
      <point x="534" y="490"/>
      <point x="447" y="566"/>
      <point x="279" y="566" type="curve" smooth="yes"/>
      <point x="144" y="566"/>
      <point x="71" y="520"/>
      <point x="19" y="446" type="curve"/>
      <point x="114" y="363" type="line"/>
      <point x="145" y="407"/>
      <point x="189" y="449"/>
      <point x="268" y="449" type="curve" smooth="yes"/>
      <point x="359" y="449"/>
      <point x="386" y="404"/>
      <point x="386" y="342" type="curve" smooth="yes"/>
      <point x="386" y="194" type="line" smooth="yes"/>
      <point x="386" y="138"/>
      <point x="334" y="108"/>
      <point x="292" y="108" type="curve" smooth="yes"/>
      <point x="223" y="108"/>
      <point x="208" y="161"/>
      <point x="208" y="219" type="curve" smooth="yes"/>
      <point x="208" y="249" type="line"/>
      <point x="60" y="249" type="line"/>
      <point x="60" y="206" type="line" smooth="yes"/>
      <point x="60" y="67"/>
      <point x="122" y="-12"/>
    </contour>
    <contour>
      <point x="534.0" y="0.0" type="move" name="bottomright"/>
    </contour>
    <contour>
      <point x="277.0" y="558.0" type="move" name="top"/>
    </contour>
    <contour>
      <point x="534.0" y="600.0" type="move" name="topright"/>
    </contour>
  </outline>
</glyph>
<glyph name="choChoe-thai" format="1">
  <advance width="941"/>
  <unicode hex="0E0C"/>
  <outline>
    <contour>
      <point x="717" y="-12" type="curve" smooth="yes" name="hr00"/>
      <point x="822" y="-12"/>
      <point x="878" y="67"/>
      <point x="878" y="206" type="curve" smooth="yes"/>
      <point x="878" y="554" type="line"/>
      <point x="730" y="554" type="line"/>
      <point x="730" y="219" type="line" smooth="yes"/>
      <point x="730" y="169"/>
      <point x="722" y="108"/>
      <point x="654" y="108" type="curve" smooth="yes"/>
      <point x="612" y="108"/>
      <point x="567" y="138"/>
      <point x="567" y="194" type="curve" smooth="yes"/>
      <point x="567" y="332" type="line" smooth="yes"/>
      <point x="567" y="470"/>
      <point x="470" y="566"/>
      <point x="304" y="566" type="curve" smooth="yes"/>
      <point x="149" y="566"/>
      <point x="41" y="473"/>
      <point x="30" y="326" type="curve"/>
      <point x="117" y="291" type="line"/>
      <point x="117" y="144" type="line" smooth="yes"/>
      <point x="117" y="51"/>
      <point x="163" y="0"/>
      <point x="264" y="0" type="curve" smooth="yes"/>
      <point x="314" y="0" type="line"/>
      <point x="314" y="115" type="line"/>
      <point x="265" y="115" type="line"/>
      <point x="265" y="280" type="line" smooth="yes"/>
      <point x="265" y="328"/>
      <point x="251" y="347"/>
      <point x="203" y="366" type="curve" smooth="yes"/>
      <point x="168" y="380" type="line"/>
      <point x="188" y="419"/>
      <point x="234" y="449"/>
      <point x="296" y="449" type="curve" smooth="yes"/>
      <point x="380" y="449"/>
      <point x="419" y="399"/>
      <point x="419" y="313" type="curve" smooth="yes"/>
      <point x="419" y="0" type="line"/>
      <point x="567" y="0" type="line"/>
      <point x="567" y="93" type="line"/>
      <point x="572" y="93" type="line"/>
      <point x="590" y="38"/>
      <point x="631" y="-12"/>
    </contour>
    <contour>
      <point x="878.0" y="0.0" type="move" name="bottomright"/>
    </contour>
    <contour>
      <point x="493.0" y="558.0" type="move" name="top"/>
    </contour>
    <contour>
      <point x="878.0" y="600.0" type="move" name="topright"/>
    </contour>
  </outline>
</glyph>
<glyph name="toPatak-thai" format="1">
  <advance width="647"/>
  <unicode hex="0E0F"/>
  <outline>
    <contour>
      <point x="130" y="-250" type="line" name="hr00"/>
      <point x="175" y="-250" type="line" smooth="yes"/>
      <point x="247" y="-250"/>
      <point x="272" y="-210"/>
      <point x="285" y="-165" type="curve"/>
      <point x="291" y="-165" type="line"/>
      <point x="303" y="-211"/>
      <point x="354" y="-250"/>
      <point x="429" y="-250" type="curve" smooth="yes"/>
      <point x="527" y="-250"/>
      <point x="584" y="-192"/>
      <point x="584" y="-86" type="curve" smooth="yes"/>
      <point x="584" y="332" type="line" smooth="yes"/>
      <point x="584" y="472"/>
      <point x="485" y="566"/>
      <point x="321" y="566" type="curve" smooth="yes"/>
      <point x="164" y="566"/>
      <point x="55" y="473"/>
      <point x="43" y="326" type="curve"/>
      <point x="130" y="291" type="line"/>
      <point x="130" y="115" type="line"/>
      <point x="81" y="115" type="line"/>
      <point x="81" y="0" type="line"/>
      <point x="131" y="0" type="line" smooth="yes"/>
      <point x="232" y="0"/>
      <point x="278" y="51"/>
      <point x="278" y="144" type="curve" smooth="yes"/>
      <point x="278" y="280" type="line" smooth="yes"/>
      <point x="278" y="328"/>
      <point x="264" y="347"/>
      <point x="216" y="366" type="curve" smooth="yes"/>
      <point x="181" y="380" type="line"/>
      <point x="201" y="419"/>
      <point x="248" y="449"/>
      <point x="311" y="449" type="curve" smooth="yes"/>
      <point x="395" y="449"/>
      <point x="436" y="399"/>
      <point x="436" y="313" type="curve" smooth="yes"/>
      <point x="436" y="-82" type="line" smooth="yes"/>
      <point x="436" y="-118"/>
      <point x="418" y="-135"/>
      <point x="391" y="-135" type="curve" smooth="yes"/>
      <point x="352" y="-135"/>
      <point x="341" y="-104"/>
      <point x="338" y="-70" type="curve"/>
      <point x="237" y="-70" type="line"/>
      <point x="234" y="-110"/>
      <point x="221" y="-135"/>
      <point x="175" y="-135" type="curve" smooth="yes"/>
      <point x="130" y="-135" type="line"/>
    </contour>
    <contour>
      <point x="315.0" y="558.0" type="move" name="top"/>
    </contour>
    <contour>
      <point x="584.0" y="600.0" type="move" name="topright"/>
    </contour>
  </outline>
</glyph>
<glyph name="thoNangmontho-thai" format="1">
  <advance width="658"/>
  <unicode hex="0E11"/>
  <outline>
    <contour>
      <point x="103" y="0" type="line" name="hr00"/>
      <point x="251" y="0" type="line"/>
      <point x="251" y="220" type="line" smooth="yes"/>
      <point x="251" y="272"/>
      <point x="269" y="296"/>
      <point x="285" y="328" type="curve" smooth="yes"/>
      <point x="312" y="380"/>
      <point x="352" y="446"/>
      <point x="392" y="446" type="curve" smooth="yes"/>
      <point x="439" y="446"/>
      <point x="447" y="402"/>
      <point x="447" y="355" type="curve" smooth="yes"/>
      <point x="447" y="0" type="line"/>
      <point x="595" y="0" type="line"/>
      <point x="595" y="388" type="line" smooth="yes"/>
      <point x="595" y="501"/>
      <point x="546" y="566"/>
      <point x="455" y="566" type="curve" smooth="yes"/>
      <point x="390" y="566"/>
      <point x="354" y="533"/>
      <point x="312" y="466" type="curve"/>
      <point x="307" y="467" type="line"/>
      <point x="309" y="478"/>
      <point x="310" y="488"/>
      <point x="310" y="497" type="curve" smooth="yes"/>
      <point x="310" y="541"/>
      <point x="285" y="566"/>
      <point x="239" y="566" type="curve" smooth="yes"/>
      <point x="182" y="566"/>
      <point x="147" y="535"/>
      <point x="132" y="487" type="curve"/>
      <point x="127" y="487" type="line"/>
      <point x="127" y="561" type="line"/>
      <point x="27" y="561" type="line"/>
      <point x="27" y="402" type="line"/>
      <point x="118" y="402" type="line"/>
      <point x="122" y="446"/>
      <point x="135" y="471"/>
      <point x="171" y="471" type="curve" smooth="yes"/>
      <point x="192" y="471"/>
      <point x="208" y="457"/>
      <point x="208" y="434" type="curve" smooth="yes"/>
      <point x="208" y="407"/>
      <point x="191" y="387"/>
      <point x="158" y="346" type="curve" smooth="yes"/>
      <point x="124" y="304"/>
      <point x="103" y="269"/>
      <point x="103" y="194" type="curve" smooth="yes"/>
    </contour>
    <contour>
      <point x="595.0" y="0.0" type="move" name="bottomright"/>
    </contour>
    <contour>
      <point x="336.0" y="558.0" type="move" name="top"/>
    </contour>
    <contour>
      <point x="595.0" y="600.0" type="move" name="topright"/>
    </contour>
  </outline>
</glyph>
<glyph name="thoPhuthao-thai" format="1">
  <advance width="960"/>
  <unicode hex="0E12"/>
  <outline>
    <contour>
      <point x="279" y="-12" type="curve" smooth="yes" name="hr00"/>
      <point x="303" y="-12"/>
      <point x="337" y="-9"/>
      <point x="352" y="-4" type="curve"/>
      <point x="335" y="114" type="line"/>
      <point x="322" y="111"/>
      <point x="313" y="110"/>
      <point x="301" y="110" type="curve" smooth="yes"/>
      <point x="219" y="110"/>
      <point x="195" y="156"/>
      <point x="195" y="229" type="curve" smooth="yes"/>
      <point x="195" y="338" type="line" smooth="yes"/>
      <point x="195" y="406"/>
      <point x="208" y="444"/>
      <point x="239" y="444" type="curve" smooth="yes"/>
      <point x="265" y="444"/>
      <point x="274" y="414"/>
      <point x="276" y="372" type="curve"/>
      <point x="364" y="372" type="line"/>
      <point x="367" y="414"/>
      <point x="379" y="444"/>
      <point x="408" y="444" type="curve" smooth="yes"/>
      <point x="428" y="444"/>
      <point x="441" y="431"/>
      <point x="441" y="398" type="curve" smooth="yes"/>
      <point x="441" y="0" type="line"/>
      <point x="586" y="0" type="line"/>
      <point x="586" y="93" type="line"/>
      <point x="590" y="93" type="line"/>
      <point x="608" y="38"/>
      <point x="650" y="-12"/>
      <point x="735" y="-12" type="curve" smooth="yes"/>
      <point x="841" y="-12"/>
      <point x="897" y="67"/>
      <point x="897" y="206" type="curve" smooth="yes"/>
      <point x="897" y="554" type="line"/>
      <point x="749" y="554" type="line"/>
      <point x="749" y="219" type="line" smooth="yes"/>
      <point x="749" y="161"/>
      <point x="736" y="108"/>
      <point x="672" y="108" type="curve" smooth="yes"/>
      <point x="630" y="108"/>
      <point x="586" y="138"/>
      <point x="586" y="194" type="curve" smooth="yes"/>
      <point x="586" y="405" type="line" smooth="yes"/>
      <point x="586" y="510"/>
      <point x="538" y="566"/>
      <point x="449" y="566" type="curve" smooth="yes"/>
      <point x="386" y="566"/>
      <point x="335" y="529"/>
      <point x="325" y="466" type="curve"/>
      <point x="318" y="466" type="line"/>
      <point x="308" y="529"/>
      <point x="265" y="566"/>
      <point x="211" y="566" type="curve" smooth="yes"/>
      <point x="96" y="566"/>
      <point x="40" y="466"/>
      <point x="40" y="279" type="curve" smooth="yes"/>
      <point x="40" y="85"/>
      <point x="127" y="-12"/>
    </contour>
    <contour>
      <point x="897.0" y="0.0" type="move" name="bottomright"/>
    </contour>
    <contour>
      <point x="514.0" y="558.0" type="move" name="top"/>
    </contour>
    <contour>
      <point x="897.0" y="600.0" type="move" name="topright"/>
    </contour>
  </outline>
</glyph>
<glyph name="noNen-thai" format="1">
  <advance width="953"/>
  <unicode hex="0E13"/>
  <outline>
    <contour>
      <point x="569" y="-12" type="curve" smooth="yes" name="hr00"/>
      <point x="663" y="-12"/>
      <point x="710" y="43"/>
      <point x="730" y="103" type="curve"/>
      <point x="737" y="103" type="line"/>
      <point x="739" y="33"/>
      <point x="771" y="0"/>
      <point x="829" y="0" type="curve" smooth="yes"/>
      <point x="918" y="0" type="line"/>
      <point x="918" y="115" type="line"/>
      <point x="869" y="115" type="line"/>
      <point x="869" y="554" type="line"/>
      <point x="721" y="554" type="line"/>
      <point x="721" y="194" type="line" smooth="yes"/>
      <point x="721" y="138"/>
      <point x="677" y="108"/>
      <point x="632" y="108" type="curve" smooth="yes"/>
      <point x="568" y="108"/>
      <point x="553" y="159"/>
      <point x="553" y="219" type="curve" smooth="yes"/>
      <point x="553" y="332" type="line" smooth="yes"/>
      <point x="553" y="465"/>
      <point x="462" y="566"/>
      <point x="291" y="566" type="curve" smooth="yes"/>
      <point x="145" y="566"/>
      <point x="42" y="473"/>
      <point x="30" y="326" type="curve"/>
      <point x="117" y="291" type="line"/>
      <point x="117" y="144" type="line" smooth="yes"/>
      <point x="117" y="51"/>
      <point x="163" y="0"/>
      <point x="264" y="0" type="curve" smooth="yes"/>
      <point x="314" y="0" type="line"/>
      <point x="314" y="115" type="line"/>
      <point x="265" y="115" type="line"/>
      <point x="265" y="280" type="line" smooth="yes"/>
      <point x="265" y="328"/>
      <point x="251" y="347"/>
      <point x="203" y="366" type="curve" smooth="yes"/>
      <point x="167" y="380" type="line"/>
      <point x="186" y="419"/>
      <point x="229" y="449"/>
      <point x="288" y="449" type="curve" smooth="yes"/>
      <point x="372" y="449"/>
      <point x="405" y="400"/>
      <point x="405" y="313" type="curve" smooth="yes"/>
      <point x="405" y="200" type="line"/>
      <point x="407" y="65"/>
      <point x="464" y="-12"/>
    </contour>
    <contour>
      <point x="869.0" y="0.0" type="move" name="bottomright"/>
    </contour>
    <contour>
      <point x="479.0" y="558.0" type="move" name="top"/>
    </contour>
    <contour>
      <point x="869.0" y="600.0" type="move" name="topright"/>
    </contour>
  </outline>
</glyph>
<glyph name="doDek-thai" format="1">
  <advance width="633"/>
  <unicode hex="0E14"/>
  <outline>
    <contour>
      <point x="288" y="-12" type="curve" smooth="yes" name="hr00"/>
      <point x="304" y="-12"/>
      <point x="335" y="-11"/>
      <point x="355" y="-6" type="curve"/>
      <point x="338" y="108" type="line"/>
      <point x="327" y="105"/>
      <point x="318" y="105"/>
      <point x="305" y="105" type="curve" smooth="yes"/>
      <point x="232" y="105"/>
      <point x="195" y="151"/>
      <point x="195" y="241" type="curve" smooth="yes"/>
      <point x="195" y="315" type="line" smooth="yes"/>
      <point x="195" y="398"/>
      <point x="239" y="449"/>
      <point x="310" y="449" type="curve" smooth="yes"/>
      <point x="380" y="449"/>
      <point x="422" y="402"/>
      <point x="422" y="321" type="curve" smooth="yes"/>
      <point x="422" y="0" type="line"/>
      <point x="570" y="0" type="line"/>
      <point x="570" y="328" type="line" smooth="yes"/>
      <point x="570" y="474"/>
      <point x="469" y="566"/>
      <point x="311" y="566" type="curve" smooth="yes"/>
      <point x="146" y="566"/>
      <point x="40" y="454"/>
      <point x="40" y="277" type="curve" smooth="yes"/>
      <point x="40" y="97"/>
      <point x="133" y="-12"/>
    </contour>
    <contour>
      <point x="570.0" y="0.0" type="move" name="bottomright"/>
    </contour>
    <contour>
      <point x="311.0" y="558.0" type="move" name="top"/>
    </contour>
    <contour>
      <point x="570.0" y="600.0" type="move" name="topright"/>
    </contour>
  </outline>
</glyph>
<glyph name="thoThong-thai" format="1">
  <advance width="561"/>
  <unicode hex="0E18"/>
  <outline>
    <contour>
      <point x="59" y="0" type="line" name="hr00"/>
      <point x="378" y="0" type="line" smooth="yes"/>
      <point x="478" y="0"/>
      <point x="524" y="51"/>
      <point x="524" y="144" type="curve" smooth="yes"/>
      <point x="524" y="197" type="line" smooth="yes"/>
      <point x="524" y="320"/>
      <point x="451" y="355"/>
      <point x="315" y="367" type="curve" smooth="yes"/>
      <point x="180" y="379" type="line"/>
      <point x="180" y="423"/>
      <point x="218" y="452"/>
      <point x="284" y="452" type="curve" smooth="yes"/>
      <point x="357" y="452"/>
      <point x="419" y="428"/>
      <point x="454" y="394" type="curve"/>
      <point x="524" y="489" type="line"/>
      <point x="471" y="535"/>
      <point x="399" y="566"/>
      <point x="294" y="566" type="curve" smooth="yes"/>
      <point x="135" y="566"/>
      <point x="49" y="491"/>
      <point x="49" y="362" type="curve" smooth="yes"/>
      <point x="49" y="281" type="line"/>
      <point x="296" y="261" type="line" smooth="yes"/>
      <point x="358" y="256"/>
      <point x="382" y="238"/>
      <point x="382" y="186" type="curve" smooth="yes"/>
      <point x="382" y="110" type="line"/>
      <point x="191" y="110" type="line"/>
      <point x="191" y="210" type="line"/>
      <point x="59" y="210" type="line"/>
    </contour>
    <contour>
      <point x="524.0" y="0.0" type="move" name="bottomright"/>
    </contour>
    <contour>
      <point x="296.0" y="558.0" type="move" name="top"/>
    </contour>
    <contour>
      <point x="524.0" y="600.0" type="move" name="topright"/>
    </contour>
  </outline>
</glyph>
<glyph name="poPla-thai" format="1">
  <advance width="621"/>
  <unicode hex="0E1B"/>
  <outline>
    <contour>
      <point x="311" y="-12" type="curve" smooth="yes" name="hr00"/>
      <point x="464" y="-12"/>
      <point x="558" y="76"/>
      <point x="558" y="213" type="curve" smooth="yes"/>
      <point x="558" y="747" type="line"/>
      <point x="410" y="747" type="line"/>
      <point x="410" y="220" type="line" smooth="yes"/>
      <point x="410" y="147"/>
      <point x="373" y="105"/>
      <point x="311" y="105" type="curve" smooth="yes"/>
      <point x="249" y="105"/>
      <point x="211" y="147"/>
      <point x="211" y="220" type="curve" smooth="yes"/>
      <point x="211" y="554" type="line"/>
      <point x="63" y="554" type="line"/>
      <point x="63" y="213" type="line" smooth="yes"/>
      <point x="63" y="76"/>
      <point x="157" y="-12"/>
    </contour>
    <contour>
      <point x="558.0" y="0.0" type="move" name="bottomright"/>
    </contour>
    <contour>
      <point x="195.0" y="550.0" type="move" name="top"/>
    </contour>
    <contour>
      <point x="410.0" y="600.0" type="move" name="topright"/>
    </contour>
  </outline>
</glyph>
<glyph name="phoPhung-thai" format="1">
  <advance width="699"/>
  <unicode hex="0E1C"/>
  <outline>
    <contour>
      <point x="210" y="-12" type="curve" smooth="yes" name="hr00"/>
      <point x="284" y="-12"/>
      <point x="333" y="34"/>
      <point x="343" y="92" type="curve"/>
      <point x="350" y="92" type="line"/>
      <point x="360" y="34"/>
      <point x="408" y="-12"/>
      <point x="493" y="-12" type="curve" smooth="yes"/>
      <point x="583" y="-12"/>
      <point x="636" y="50"/>
      <point x="636" y="144" type="curve" smooth="yes"/>
      <point x="636" y="554" type="line"/>
      <point x="488" y="554" type="line"/>
      <point x="488" y="159" type="line" smooth="yes"/>
      <point x="488" y="126"/>
      <point x="473" y="106"/>
      <point x="447" y="106" type="curve" smooth="yes"/>
      <point x="420" y="106"/>
      <point x="405" y="129"/>
      <point x="405" y="163" type="curve" smooth="yes"/>
      <point x="405" y="259" type="line"/>
      <point x="284" y="259" type="line"/>
      <point x="284" y="163" type="line" smooth="yes"/>
      <point x="284" y="129"/>
      <point x="270" y="106"/>
      <point x="242" y="106" type="curve" smooth="yes"/>
      <point x="209" y="106"/>
      <point x="198" y="140"/>
      <point x="198" y="195" type="curve" smooth="yes"/>
      <point x="198" y="336" type="line" smooth="yes"/>
      <point x="198" y="395"/>
      <point x="219" y="433"/>
      <point x="274" y="433" type="curve" smooth="yes"/>
      <point x="291" y="433" type="line"/>
      <point x="291" y="554" type="line"/>
      <point x="259" y="554" type="line" smooth="yes"/>
      <point x="117" y="554"/>
      <point x="43" y="449"/>
      <point x="43" y="275" type="curve" smooth="yes"/>
      <point x="43" y="102"/>
      <point x="79" y="-12"/>
    </contour>
    <contour>
      <point x="636.0" y="0.0" type="move" name="bottomright"/>
    </contour>
    <contour>
      <point x="366.0" y="558.0" type="move" name="top"/>
    </contour>
    <contour>
      <point x="636.0" y="600.0" type="move" name="topright"/>
    </contour>
  </outline>
</glyph>
<glyph name="phoPhan-thai" format="1">
  <advance width="746"/>
  <unicode hex="0E1E"/>
  <outline>
    <contour>
      <point x="128" y="0" type="line" name="hr00"/>
      <point x="282" y="0" type="line"/>
      <point x="355" y="325" type="line"/>
      <point x="371" y="403" type="line"/>
      <point x="374" y="403" type="line"/>
      <point x="388" y="325" type="line"/>
      <point x="460" y="0" type="line"/>
      <point x="617" y="0" type="line"/>
      <point x="692" y="554" type="line"/>
      <point x="557" y="554" type="line"/>
      <point x="527" y="265" type="line"/>
      <point x="524" y="174" type="line"/>
      <point x="517" y="174" type="line"/>
      <point x="497" y="265" type="line"/>
      <point x="422" y="554" type="line"/>
      <point x="324" y="554" type="line"/>
      <point x="249" y="265" type="line"/>
      <point x="229" y="174" type="line"/>
      <point x="221" y="174" type="line"/>
      <point x="215" y="265" type="line"/>
      <point x="189" y="554" type="line"/>
      <point x="54" y="554" type="line"/>
    </contour>
    <contour>
      <point x="618.0" y="0.0" type="move" name="bottomright"/>
    </contour>
    <contour>
      <point x="373.0" y="558.0" type="move" name="top"/>
    </contour>
    <contour>
      <point x="693.0" y="600.0" type="move" name="topright"/>
    </contour>
  </outline>
</glyph>
<glyph name="phoSamphao-thai" format="1">
  <advance width="647"/>
  <unicode hex="0E20"/>
  <outline>
    <contour>
      <point x="81" y="0" type="line" name="hr00"/>
      <point x="131" y="0" type="line" smooth="yes"/>
      <point x="232" y="0"/>
      <point x="278" y="51"/>
      <point x="278" y="144" type="curve" smooth="yes"/>
      <point x="278" y="280" type="line" smooth="yes"/>
      <point x="278" y="328"/>
      <point x="264" y="348"/>
      <point x="216" y="366" type="curve" smooth="yes"/>
      <point x="181" y="379" type="line"/>
      <point x="201" y="418"/>
      <point x="248" y="449"/>
      <point x="311" y="449" type="curve" smooth="yes"/>
      <point x="395" y="449"/>
      <point x="436" y="399"/>
      <point x="436" y="313" type="curve" smooth="yes"/>
      <point x="436" y="0" type="line"/>
      <point x="584" y="0" type="line"/>
      <point x="584" y="332" type="line" smooth="yes"/>
      <point x="584" y="472"/>
      <point x="485" y="566"/>
      <point x="321" y="566" type="curve" smooth="yes"/>
      <point x="164" y="566"/>
      <point x="55" y="473"/>
      <point x="43" y="326" type="curve"/>
      <point x="130" y="291" type="line"/>
      <point x="130" y="115" type="line"/>
      <point x="81" y="115" type="line"/>
    </contour>
    <contour>
      <point x="584.0" y="0.0" type="move" name="bottomright"/>
    </contour>
    <contour>
      <point x="315.0" y="558.0" type="move" name="top"/>
    </contour>
    <contour>
      <point x="584.0" y="600.0" type="move" name="topright"/>
    </contour>
  </outline>
</glyph>
<glyph name="yoYak-thai" format="1">
  <advance width="601"/>
  <unicode hex="0E22"/>
  <outline>
    <contour>
      <point x="277" y="-12" type="curve" smooth="yes" name="hr00"/>
      <point x="436" y="-12"/>
      <point x="538" y="68"/>
      <point x="538" y="194" type="curve" smooth="yes"/>
      <point x="538" y="554" type="line"/>
      <point x="390" y="554" type="line"/>
      <point x="390" y="213" type="line" smooth="yes"/>
      <point x="390" y="143"/>
      <point x="348" y="105"/>
      <point x="282" y="105" type="curve" smooth="yes"/>
      <point x="224" y="105"/>
      <point x="192" y="127"/>
      <point x="192" y="172" type="curve" smooth="yes"/>
      <point x="192" y="191" type="line" smooth="yes"/>
      <point x="192" y="223"/>
      <point x="213" y="244"/>
      <point x="242" y="244" type="curve" smooth="yes"/>
      <point x="294" y="244" type="line"/>
      <point x="294" y="342" type="line"/>
      <point x="242" y="342" type="line" smooth="yes"/>
      <point x="194" y="342"/>
      <point x="172" y="361"/>
      <point x="172" y="397" type="curve" smooth="yes"/>
      <point x="172" y="432"/>
      <point x="200" y="450"/>
      <point x="230" y="450" type="curve" smooth="yes"/>
      <point x="247" y="450"/>
      <point x="262" y="447"/>
      <point x="278" y="438" type="curve"/>
      <point x="309" y="544" type="line"/>
      <point x="278" y="561"/>
      <point x="234" y="566"/>
      <point x="204" y="566" type="curve" smooth="yes"/>
      <point x="107" y="566"/>
      <point x="40" y="508"/>
      <point x="40" y="422" type="curve" smooth="yes"/>
      <point x="40" y="356"/>
      <point x="80" y="304"/>
      <point x="146" y="287" type="curve"/>
      <point x="146" y="281" type="line"/>
      <point x="86" y="263"/>
      <point x="44" y="214"/>
      <point x="44" y="151" type="curve" smooth="yes"/>
      <point x="44" y="47"/>
      <point x="132" y="-12"/>
    </contour>
    <contour>
      <point x="538.0" y="0.0" type="move" name="bottomright"/>
    </contour>
    <contour>
      <point x="298.0" y="558.0" type="move" name="top"/>
    </contour>
    <contour>
      <point x="538.0" y="600.0" type="move" name="topright"/>
    </contour>
  </outline>
</glyph>
<glyph name="roRua-thai" format="1">
  <advance width="552"/>
  <unicode hex="0E23"/>
  <outline>
    <contour>
      <point x="274" y="-12" type="curve" smooth="yes" name="hr00"/>
      <point x="414" y="-12"/>
      <point x="508" y="63"/>
      <point x="508" y="168" type="curve" smooth="yes"/>
      <point x="508" y="271"/>
      <point x="440" y="316"/>
      <point x="326" y="332" type="curve" smooth="yes"/>
      <point x="269" y="340" type="line" smooth="yes"/>
      <point x="218" y="347"/>
      <point x="200" y="366"/>
      <point x="200" y="398" type="curve" smooth="yes"/>
      <point x="200" y="430"/>
      <point x="225" y="452"/>
      <point x="279" y="452" type="curve" smooth="yes"/>
      <point x="329" y="452"/>
      <point x="379" y="429"/>
      <point x="411" y="394" type="curve"/>
      <point x="498" y="480" type="line"/>
      <point x="442" y="536"/>
      <point x="384" y="566"/>
      <point x="276" y="566" type="curve" smooth="yes"/>
      <point x="148" y="566"/>
      <point x="61" y="497"/>
      <point x="61" y="386" type="curve" smooth="yes"/>
      <point x="61" y="286"/>
      <point x="129" y="231"/>
      <point x="249" y="216" type="curve" smooth="yes"/>
      <point x="306" y="209" type="line" smooth="yes"/>
      <point x="345" y="204"/>
      <point x="369" y="191"/>
      <point x="369" y="156" type="curve" smooth="yes"/>
      <point x="369" y="124"/>
      <point x="342" y="102"/>
      <point x="281" y="102" type="curve" smooth="yes"/>
      <point x="219" y="102"/>
      <point x="169" y="131"/>
      <point x="130" y="173" type="curve"/>
      <point x="41" y="87" type="line"/>
      <point x="97" y="25"/>
      <point x="168" y="-12"/>
    </contour>
    <contour>
      <point x="490.0" y="0.0" type="move" name="bottomright"/>
    </contour>
    <contour>
      <point x="278.0" y="558.0" type="move" name="top"/>
    </contour>
    <contour>
      <point x="503.0" y="600.0" type="move" name="topright"/>
    </contour>
  </outline>
</glyph>
<glyph name="ru-thai" format="1">
  <advance width="629"/>
  <unicode hex="0E24"/>
  <outline>
    <contour>
      <point x="418" y="-200" type="line" name="hr00"/>
      <point x="566" y="-200" type="line"/>
      <point x="566" y="332" type="line" smooth="yes"/>
      <point x="566" y="470"/>
      <point x="470" y="566"/>
      <point x="304" y="566" type="curve" smooth="yes"/>
      <point x="149" y="566"/>
      <point x="42" y="473"/>
      <point x="30" y="326" type="curve"/>
      <point x="117" y="291" type="line"/>
      <point x="117" y="144" type="line" smooth="yes"/>
      <point x="117" y="51"/>
      <point x="163" y="0"/>
      <point x="264" y="0" type="curve" smooth="yes"/>
      <point x="314" y="0" type="line"/>
      <point x="314" y="115" type="line"/>
      <point x="265" y="115" type="line"/>
      <point x="265" y="280" type="line" smooth="yes"/>
      <point x="265" y="328"/>
      <point x="251" y="348"/>
      <point x="203" y="366" type="curve" smooth="yes"/>
      <point x="168" y="379" type="line"/>
      <point x="187" y="418"/>
      <point x="233" y="449"/>
      <point x="295" y="449" type="curve" smooth="yes"/>
      <point x="379" y="449"/>
      <point x="418" y="399"/>
      <point x="418" y="313" type="curve" smooth="yes"/>
    </contour>
    <contour>
      <point x="300.0" y="558.0" type="move" name="top"/>
    </contour>
  </outline>
</glyph>
<glyph name="loLing-thai" format="1">
  <advance width="600"/>
  <unicode hex="0E25"/>
  <outline>
    <contour>
      <point x="224" y="-10" type="curve" smooth="yes" name="hr00"/>
      <point x="246" y="-10"/>
      <point x="284" y="-8"/>
      <point x="296" y="-3" type="curve"/>
      <point x="286" y="76" type="line"/>
      <point x="278" y="74"/>
      <point x="270" y="74"/>
      <point x="262" y="74" type="curve" smooth="yes"/>
      <point x="221" y="74"/>
      <point x="199" y="101"/>
      <point x="199" y="142" type="curve" smooth="yes"/>
      <point x="199" y="159" type="line" smooth="yes"/>
      <point x="199" y="202"/>
      <point x="225" y="223"/>
      <point x="277" y="223" type="curve" smooth="yes"/>
      <point x="389" y="223" type="line"/>
      <point x="389" y="0" type="line"/>
      <point x="537" y="0" type="line"/>
      <point x="537" y="351" type="line" smooth="yes"/>
      <point x="537" y="491"/>
      <point x="452" y="566"/>
      <point x="286" y="566" type="curve" smooth="yes"/>
      <point x="155" y="566"/>
      <point x="85" y="521"/>
      <point x="34" y="449" type="curve"/>
      <point x="128" y="367" type="line"/>
      <point x="158" y="409"/>
      <point x="200" y="449"/>
      <point x="276" y="449" type="curve" smooth="yes"/>
      <point x="356" y="449"/>
      <point x="389" y="412"/>
      <point x="389" y="346" type="curve" smooth="yes"/>
      <point x="389" y="317" type="line"/>
      <point x="224" y="317" type="line" smooth="yes"/>
      <point x="111" y="317"/>
      <point x="49" y="256"/>
      <point x="49" y="153" type="curve" smooth="yes"/>
      <point x="49" y="41"/>
      <point x="118" y="-10"/>
    </contour>
    <contour>
      <point x="537.0" y="0.0" type="move" name="bottomright"/>
    </contour>
    <contour>
      <point x="296.0" y="558.0" type="move" name="top"/>
    </contour>
    <contour>
      <point x="537.0" y="600.0" type="move" name="topright"/>
    </contour>
  </outline>
</glyph>
<glyph name="lu-thai" format="1">
  <advance width="632"/>
  <unicode hex="0E26"/>
  <outline>
    <contour>
      <point x="421" y="-200" type="line" name="hr00"/>
      <point x="569" y="-200" type="line"/>
      <point x="569" y="332" type="line" smooth="yes"/>
      <point x="569" y="466"/>
      <point x="477" y="566"/>
      <point x="307" y="566" type="curve" smooth="yes"/>
      <point x="159" y="566"/>
      <point x="55" y="473"/>
      <point x="43" y="326" type="curve"/>
      <point x="130" y="291" type="line"/>
      <point x="130" y="115" type="line"/>
      <point x="81" y="115" type="line"/>
      <point x="81" y="0" type="line"/>
      <point x="131" y="0" type="line" smooth="yes"/>
      <point x="232" y="0"/>
      <point x="278" y="51"/>
      <point x="278" y="144" type="curve" smooth="yes"/>
      <point x="278" y="280" type="line" smooth="yes"/>
      <point x="278" y="328"/>
      <point x="265" y="348"/>
      <point x="216" y="366" type="curve" smooth="yes"/>
      <point x="180" y="379" type="line"/>
      <point x="199" y="418"/>
      <point x="243" y="449"/>
      <point x="303" y="449" type="curve" smooth="yes"/>
      <point x="387" y="449"/>
      <point x="421" y="400"/>
      <point x="421" y="313" type="curve" smooth="yes"/>
    </contour>
    <contour>
      <point x="307.0" y="558.0" type="move" name="top"/>
    </contour>
  </outline>
</glyph>
<glyph name="woWaen-thai" format="1">
  <advance width="528"/>
  <unicode hex="0E27"/>
  <outline>
    <contour>
      <point x="244" y="-12" type="curve" smooth="yes" name="hr00"/>
      <point x="402" y="-12"/>
      <point x="488" y="101"/>
      <point x="488" y="278" type="curve" smooth="yes"/>
      <point x="488" y="454"/>
      <point x="401" y="566"/>
      <point x="244" y="566" type="curve" smooth="yes"/>
      <point x="130" y="566"/>
      <point x="49" y="512"/>
      <point x="16" y="422" type="curve"/>
      <point x="136" y="370" type="line"/>
      <point x="146" y="414"/>
      <point x="180" y="449"/>
      <point x="237" y="449" type="curve" smooth="yes"/>
      <point x="300" y="449"/>
      <point x="333" y="401"/>
      <point x="333" y="328" type="curve" smooth="yes"/>
      <point x="333" y="225" type="line" smooth="yes"/>
      <point x="333" y="152"/>
      <point x="300" y="105"/>
      <point x="236" y="105" type="curve" smooth="yes"/>
      <point x="191" y="105"/>
      <point x="161" y="123"/>
      <point x="139" y="137" type="curve"/>
      <point x="84" y="33" type="line"/>
      <point x="127" y="2"/>
      <point x="183" y="-12"/>
    </contour>
    <contour>
      <point x="468.0" y="0.0" type="move" name="bottomright"/>
    </contour>
    <contour>
      <point x="263.0" y="558.0" type="move" name="top"/>
    </contour>
    <contour>
      <point x="468.0" y="600.0" type="move" name="topright"/>
    </contour>
  </outline>
</glyph>
<glyph name="soSala-thai" format="1">
  <advance width="720"/>
  <unicode hex="0E28"/>
  <outline>
    <contour>
      <point x="63" y="0" type="line" name="hr00"/>
      <point x="211" y="0" type="line"/>
      <point x="211" y="101" type="line" smooth="yes"/>
      <point x="211" y="162"/>
      <point x="253" y="181"/>
      <point x="339" y="181" type="curve" smooth="yes"/>
      <point x="376" y="181" type="line"/>
      <point x="376" y="319" type="line"/>
      <point x="350" y="319" type="line" smooth="yes"/>
      <point x="268" y="319"/>
      <point x="228" y="263"/>
      <point x="216" y="205" type="curve"/>
      <point x="211" y="205" type="line"/>
      <point x="211" y="324" type="line" smooth="yes"/>
      <point x="211" y="403"/>
      <point x="258" y="449"/>
      <point x="335" y="449" type="curve" smooth="yes"/>
      <point x="412" y="449"/>
      <point x="459" y="403"/>
      <point x="459" y="324" type="curve" smooth="yes"/>
      <point x="459" y="0" type="line"/>
      <point x="607" y="0" type="line"/>
      <point x="607" y="331" type="line" smooth="yes"/>
      <point x="607" y="379"/>
      <point x="596" y="420"/>
      <point x="574" y="455" type="curve"/>
      <point x="574" y="461" type="line"/>
      <point x="718" y="461" type="line"/>
      <point x="718" y="583" type="line"/>
      <point x="596" y="583" type="line" smooth="yes"/>
      <point x="549" y="583"/>
      <point x="519" y="563"/>
      <point x="511" y="520" type="curve"/>
      <point x="466" y="550"/>
      <point x="406" y="566"/>
      <point x="335" y="566" type="curve" smooth="yes"/>
      <point x="167" y="566"/>
      <point x="63" y="474"/>
      <point x="63" y="331" type="curve" smooth="yes"/>
    </contour>
    <contour>
      <point x="607.0" y="0.0" type="move" name="bottomright"/>
    </contour>
    <contour>
      <point x="335.0" y="558.0" type="move" name="top"/>
    </contour>
    <contour>
      <point x="607.0" y="600.0" type="move" name="topright"/>
    </contour>
  </outline>
</glyph>
<glyph name="soRusi-thai" format="1">
  <advance width="678"/>
  <unicode hex="0E29"/>
  <outline>
    <contour>
      <point x="317" y="-12" type="curve" smooth="yes" name="hr00"/>
      <point x="475" y="-12"/>
      <point x="571" y="76"/>
      <point x="571" y="213" type="curve" smooth="yes"/>
      <point x="571" y="245" type="line"/>
      <point x="635" y="245" type="line"/>
      <point x="635" y="345" type="line"/>
      <point x="571" y="345" type="line"/>
      <point x="571" y="554" type="line"/>
      <point x="423" y="554" type="line"/>
      <point x="423" y="345" type="line"/>
      <point x="374" y="345" type="line"/>
      <point x="374" y="402" type="line"/>
      <point x="260" y="402" type="line"/>
      <point x="260" y="335" type="line" smooth="yes"/>
      <point x="260" y="275"/>
      <point x="294" y="245"/>
      <point x="365" y="245" type="curve" smooth="yes"/>
      <point x="423" y="245" type="line"/>
      <point x="423" y="220" type="line" smooth="yes"/>
      <point x="423" y="147"/>
      <point x="384" y="105"/>
      <point x="317" y="105" type="curve" smooth="yes"/>
      <point x="250" y="105"/>
      <point x="211" y="147"/>
      <point x="211" y="220" type="curve" smooth="yes"/>
      <point x="211" y="554" type="line"/>
      <point x="63" y="554" type="line"/>
      <point x="63" y="213" type="line" smooth="yes"/>
      <point x="63" y="76"/>
      <point x="159" y="-12"/>
    </contour>
    <contour>
      <point x="571.0" y="0.0" type="move" name="bottomright"/>
    </contour>
    <contour>
      <point x="317.0" y="558.0" type="move" name="top"/>
    </contour>
    <contour>
      <point x="571.0" y="600.0" type="move" name="topright"/>
    </contour>
  </outline>
</glyph>
<glyph name="hoHip-thai" format="1">
  <advance width="622"/>
  <unicode hex="0E2B"/>
  <outline>
    <contour>
      <point x="69" y="0" type="line" name="hr00"/>
      <point x="217" y="0" type="line"/>
      <point x="217" y="282" type="line"/>
      <point x="313" y="294" type="line" smooth="yes"/>
      <point x="367" y="301"/>
      <point x="399" y="261"/>
      <point x="404" y="192" type="curve" smooth="yes"/>
      <point x="419" y="0" type="line"/>
      <point x="571" y="0" type="line"/>
      <point x="554" y="182" type="line" smooth="yes"/>
      <point x="548" y="244"/>
      <point x="531" y="346"/>
      <point x="430" y="362" type="curve"/>
      <point x="430" y="367" type="line"/>
      <point x="507" y="374"/>
      <point x="549" y="422"/>
      <point x="555" y="483" type="curve" smooth="yes"/>
      <point x="562" y="554" type="line"/>
      <point x="409" y="554" type="line"/>
      <point x="402" y="488" type="line" smooth="yes"/>
      <point x="397" y="440"/>
      <point x="383" y="422"/>
      <point x="344" y="417" type="curve" smooth="yes"/>
      <point x="217" y="400" type="line"/>
      <point x="217" y="554" type="line"/>
      <point x="69" y="554" type="line"/>
    </contour>
    <contour>
      <point x="571.0" y="0.0" type="move" name="bottomright"/>
    </contour>
    <contour>
      <point x="312.0" y="558.0" type="move" name="top"/>
    </contour>
    <contour>
      <point x="560.0" y="600.0" type="move" name="topright"/>
    </contour>
  </outline>
</glyph>
<glyph name="loChula-thai" format="1">
  <advance width="681"/>
  <unicode hex="0E2C"/>
  <outline>
    <contour>
      <point x="69" y="0" type="line" name="hr00"/>
      <point x="212" y="0" type="line"/>
      <point x="340" y="157" type="line"/>
      <point x="467" y="0" type="line"/>
      <point x="611" y="0" type="line"/>
      <point x="611" y="394" type="line" smooth="yes"/>
      <point x="611" y="453"/>
      <point x="589" y="491"/>
      <point x="531" y="508" type="curve"/>
      <point x="531" y="515" type="line"/>
      <point x="592" y="526"/>
      <point x="622" y="562"/>
      <point x="622" y="620" type="curve" smooth="yes"/>
      <point x="622" y="684" type="line"/>
      <point x="476" y="684" type="line"/>
      <point x="476" y="603" type="line" smooth="yes"/>
      <point x="476" y="565"/>
      <point x="457" y="554"/>
      <point x="427" y="554" type="curve" smooth="yes"/>
      <point x="382" y="554" type="line"/>
      <point x="382" y="443" type="line"/>
      <point x="416" y="443" type="line" smooth="yes"/>
      <point x="455" y="443"/>
      <point x="465" y="425"/>
      <point x="465" y="396" type="curve" smooth="yes"/>
      <point x="465" y="290" type="line"/>
      <point x="470" y="154" type="line"/>
      <point x="464" y="154" type="line"/>
      <point x="380" y="263" type="line"/>
      <point x="299" y="263" type="line"/>
      <point x="215" y="154" type="line"/>
      <point x="209" y="154" type="line"/>
      <point x="215" y="290" type="line"/>
      <point x="215" y="554" type="line"/>
      <point x="69" y="554" type="line"/>
    </contour>
    <contour>
      <point x="611.0" y="0.0" type="move" name="bottomright"/>
    </contour>
    <contour>
      <point x="259.0" y="558.0" type="move" name="top"/>
    </contour>
  </outline>
</glyph>
<glyph name="hoNokhuk-thai" format="1">
  <advance width="656"/>
  <unicode hex="0E2E"/>
  <outline>
    <contour>
      <point x="291" y="-12" type="curve" smooth="yes" name="hr00"/>
      <point x="457" y="-12"/>
      <point x="557" y="96"/>
      <point x="557" y="277" type="curve" smooth="yes"/>
      <point x="557" y="348"/>
      <point x="541" y="408"/>
      <point x="512" y="454" type="curve"/>
      <point x="512" y="461" type="line"/>
      <point x="657" y="461" type="line"/>
      <point x="657" y="583" type="line"/>
      <point x="534" y="583" type="line" smooth="yes"/>
      <point x="488" y="583"/>
      <point x="457" y="563"/>
      <point x="449" y="520" type="curve"/>
      <point x="406" y="550"/>
      <point x="351" y="566"/>
      <point x="286" y="566" type="curve" smooth="yes"/>
      <point x="163" y="566"/>
      <point x="78" y="516"/>
      <point x="37" y="454" type="curve"/>
      <point x="127" y="374" type="line"/>
      <point x="148" y="407"/>
      <point x="205" y="449"/>
      <point x="280" y="449" type="curve" smooth="yes"/>
      <point x="357" y="449"/>
      <point x="402" y="402"/>
      <point x="402" y="322" type="curve" smooth="yes"/>
      <point x="402" y="230" type="line" smooth="yes"/>
      <point x="402" y="150"/>
      <point x="364" y="101"/>
      <point x="296" y="101" type="curve" smooth="yes"/>
      <point x="221" y="101"/>
      <point x="179" y="134"/>
      <point x="179" y="193" type="curve" smooth="yes"/>
      <point x="179" y="209" type="line"/>
      <point x="256" y="209" type="line"/>
      <point x="256" y="318" type="line"/>
      <point x="136" y="318" type="line" smooth="yes"/>
      <point x="77" y="318"/>
      <point x="46" y="283"/>
      <point x="46" y="229" type="curve" smooth="yes"/>
      <point x="46" y="180" type="line" smooth="yes"/>
      <point x="46" y="69"/>
      <point x="149" y="-12"/>
    </contour>
    <contour>
      <point x="533.0" y="0.0" type="move" name="bottomright"/>
    </contour>
    <contour>
      <point x="286.0" y="558.0" type="move" name="top"/>
    </contour>
    <contour>
      <point x="533.0" y="600.0" type="move" name="topright"/>
    </contour>
  </outline>
</glyph>
<glyph name="paiyannoi-thai" format="1">
  <advance width="596"/>
  <unicode hex="0E2F"/>
  <outline>
    <contour>
      <point x="379" y="0" type="line" name="hr00"/>
      <point x="527" y="0" type="line"/>
      <point x="527" y="554" type="line"/>
      <point x="379" y="554" type="line"/>
      <point x="379" y="519" type="line" smooth="yes"/>
      <point x="379" y="441"/>
      <point x="324" y="429"/>
      <point x="275" y="429" type="curve" smooth="yes"/>
      <point x="262" y="429" type="line" smooth="yes"/>
      <point x="195" y="429"/>
      <point x="177" y="466"/>
      <point x="177" y="519" type="curve" smooth="yes"/>
      <point x="177" y="554" type="line"/>
      <point x="29" y="554" type="line"/>
      <point x="29" y="499" type="line" smooth="yes"/>
      <point x="29" y="375"/>
      <point x="90" y="311"/>
      <point x="210" y="311" type="curve" smooth="yes"/>
      <point x="310" y="311"/>
      <point x="359" y="362"/>
      <point x="374" y="415" type="curve"/>
      <point x="379" y="415" type="line"/>
    </contour>
  </outline>
</glyph>
<glyph name="saraA-thai" format="1">
  <advance width="407"/>
  <unicode hex="0E30"/>
  <outline>
    <contour>
      <point x="190" y="79" type="curve" smooth="yes" name="hr00"/>
      <point x="344" y="79" type="line"/>
      <point x="344" y="200" type="line"/>
      <point x="186" y="200" type="line"/>
      <point x="186" y="255" type="line"/>
      <point x="63" y="255" type="line"/>
      <point x="63" y="193" type="line" smooth="yes"/>
      <point x="63" y="119"/>
      <point x="108" y="79"/>
    </contour>
    <contour>
      <point x="190" y="324" type="curve" smooth="yes"/>
      <point x="344" y="324" type="line"/>
      <point x="344" y="445" type="line"/>
      <point x="186" y="445" type="line"/>
      <point x="186" y="500" type="line"/>
      <point x="63" y="500" type="line"/>
      <point x="63" y="438" type="line" smooth="yes"/>
      <point x="63" y="364"/>
      <point x="108" y="324"/>
    </contour>
  </outline>
</glyph>
<glyph name="maiHanaKat-thai" format="1">
  <advance width="0"/>
  <unicode hex="0E31"/>
  <outline>
    <contour>
      <point x="-138" y="639" type="curve" smooth="yes" name="hr00"/>
      <point x="120" y="639" type="line"/>
      <point x="120" y="747" type="line"/>
      <point x="-148" y="747" type="line"/>
      <point x="-148" y="835" type="line"/>
      <point x="-265" y="835" type="line"/>
      <point x="-265" y="753" type="line" smooth="yes"/>
      <point x="-265" y="679"/>
      <point x="-220" y="639"/>
    </contour>
    <contour>
      <point x="0.0" y="600.0" type="move" name="_topright"/>
    </contour>
    <contour>
      <point x="0.0" y="800.0" type="move" name="topright"/>
    </contour>
  </outline>
</glyph>
<glyph name="saraI-thai" format="1">
  <advance width="0"/>
  <unicode hex="0E34"/>
  <outline>
    <contour>
      <point x="-462" y="639" type="line" name="hr00"/>
      <point x="0" y="639" type="line"/>
      <point x="0" y="747" type="line"/>
      <point x="-462" y="747" type="line"/>
    </contour>
    <contour>
      <point x="0.0" y="600.0" type="move" name="_topright"/>
    </contour>
    <contour>
      <point x="0.0" y="760.0" type="move" name="topright"/>
    </contour>
  </outline>
</glyph>
<glyph name="saraUe-thai" format="1">
  <advance width="0"/>
  <unicode hex="0E36"/>
  <outline>
    <contour>
      <point x="-462" y="639" type="line" name="hr00"/>
      <point x="-74" y="639" type="line" smooth="yes"/>
      <point x="0" y="639"/>
      <point x="48" y="683"/>
      <point x="48" y="753" type="curve" smooth="yes"/>
      <point x="48" y="823"/>
      <point x="0" y="867"/>
      <point x="-74" y="867" type="curve" smooth="yes"/>
      <point x="-149" y="867"/>
      <point x="-198" y="823"/>
      <point x="-198" y="753" type="curve" smooth="yes"/>
      <point x="-198" y="747" type="line"/>
      <point x="-462" y="747" type="line"/>
    </contour>
    <contour>
      <point x="-75" y="709" type="curve" smooth="yes"/>
      <point x="-101" y="709"/>
      <point x="-119" y="723"/>
      <point x="-119" y="748" type="curve" smooth="yes"/>
      <point x="-119" y="758" type="line" smooth="yes"/>
      <point x="-119" y="783"/>
      <point x="-101" y="797"/>
      <point x="-75" y="797" type="curve" smooth="yes"/>
      <point x="-49" y="797"/>
      <point x="-31" y="783"/>
      <point x="-31" y="758" type="curve" smooth="yes"/>
      <point x="-31" y="748" type="line" smooth="yes"/>
      <point x="-31" y="723"/>
      <point x="-49" y="709"/>
    </contour>
    <contour>
      <point x="0.0" y="600.0" type="move" name="_topright"/>
    </contour>
    <contour>
      <point x="-12.0" y="840.0" type="move" name="topright"/>
    </contour>
  </outline>
</glyph>
<glyph name="saraU-thai" format="1">
  <advance width="0"/>
  <unicode hex="0E38"/>
  <outline>
    <contour>
      <point x="-121" y="-350" type="line" name="hr00"/>
      <point x="0" y="-350" type="line"/>
      <point x="0" y="-182" type="line" smooth="yes"/>
      <point x="0" y="-134"/>
      <point x="-27" y="-104"/>
      <point x="-93" y="-104" type="curve" smooth="yes"/>
      <point x="-192" y="-104" type="line"/>
      <point x="-192" y="-199" type="line"/>
      <point x="-121" y="-199" type="line"/>
    </contour>
    <contour>
      <point x="0.0" y="0.0" type="move" name="_bottomright"/>
    </contour>
  </outline>
</glyph>
<glyph name="saraUu-thai" format="1">
  <advance width="0"/>
  <unicode hex="0E39"/>
  <outline>
    <contour>
      <point x="-170" y="-358" type="curve" smooth="yes" name="hr00"/>
      <point x="-54" y="-358"/>
      <point x="0" y="-291"/>
      <point x="0" y="-195" type="curve" smooth="yes"/>
      <point x="0" y="-104" type="line"/>
      <point x="-121" y="-104" type="line"/>
      <point x="-121" y="-207" type="line" smooth="yes"/>
      <point x="-121" y="-246"/>
      <point x="-134" y="-263"/>
      <point x="-169" y="-263" type="curve" smooth="yes"/>
      <point x="-200" y="-263"/>
      <point x="-216" y="-246"/>
      <point x="-216" y="-207" type="curve" smooth="yes"/>
      <point x="-216" y="-174" type="line" smooth="yes"/>
      <point x="-216" y="-131"/>
      <point x="-243" y="-104"/>
      <point x="-309" y="-104" type="curve" smooth="yes"/>
      <point x="-388" y="-104" type="line"/>
      <point x="-388" y="-199" type="line"/>
      <point x="-324" y="-199" type="line"/>
      <point x="-324" y="-228" type="line" smooth="yes"/>
      <point x="-324" y="-304"/>
      <point x="-285" y="-358"/>
    </contour>
    <contour>
      <point x="0.0" y="0.0" type="move" name="_bottomright"/>
    </contour>
  </outline>
</glyph>
<glyph name="phinthu-thai" format="1">
  <advance width="0"/>
  <unicode hex="0E3A"/>
  <outline>
    <contour>
      <point x="-76" y="-261" type="curve" smooth="yes" name="hr00"/>
      <point x="-10" y="-261"/>
      <point x="13" y="-230"/>
      <point x="13" y="-191" type="curve" smooth="yes"/>
      <point x="13" y="-162" type="line" smooth="yes"/>
      <point x="13" y="-123"/>
      <point x="-10" y="-92"/>
      <point x="-76" y="-92" type="curve" smooth="yes"/>
      <point x="-142" y="-92"/>
      <point x="-165" y="-123"/>
      <point x="-165" y="-162" type="curve" smooth="yes"/>
      <point x="-165" y="-191" type="line" smooth="yes"/>
      <point x="-165" y="-230"/>
      <point x="-142" y="-261"/>
    </contour>
    <contour>
      <point x="0.0" y="0.0" type="move" name="_bottomright"/>
    </contour>
    <contour>
      <point x="0.0" y="-271.0" type="move" name="bottomright"/>
    </contour>
  </outline>
</glyph>
<glyph name="baht" format="1">
  <advance width="665"/>
  <unicode hex="0E3F"/>
  <outline>
    <contour>
      <point x="276" y="-90" type="line" name="hr00"/>
      <point x="390" y="-90" type="line"/>
      <point x="390" y="20" type="line"/>
      <point x="455" y="20" type="line" smooth="yes"/>
      <point x="552" y="20"/>
      <point x="625" y="103"/>
      <point x="625" y="210" type="curve" smooth="yes"/>
      <point x="625" y="313"/>
      <point x="557" y="357"/>
      <point x="472" y="362" type="curve"/>
      <point x="472" y="368" type="line"/>
      <point x="556" y="378"/>
      <point x="600" y="418"/>
      <point x="600" y="506" type="curve" smooth="yes"/>
      <point x="600" y="613"/>
      <point x="535" y="678"/>
      <point x="427" y="678" type="curve" smooth="yes"/>
      <point x="390" y="678" type="line"/>
      <point x="390" y="780" type="line"/>
      <point x="276" y="780" type="line"/>
      <point x="276" y="678" type="line"/>
      <point x="77" y="678" type="line"/>
      <point x="77" y="20" type="line"/>
      <point x="276" y="20" type="line"/>
    </contour>
    <contour>
      <point x="381" y="133" type="line"/>
      <point x="381" y="300" type="line"/>
      <point x="422" y="300" type="line" smooth="yes"/>
      <point x="463" y="300"/>
      <point x="490" y="275"/>
      <point x="490" y="234" type="curve" smooth="yes"/>
      <point x="490" y="199" type="line" smooth="yes"/>
      <point x="490" y="158"/>
      <point x="463" y="133"/>
      <point x="422" y="133" type="curve" smooth="yes"/>
    </contour>
    <contour>
      <point x="381" y="401" type="line"/>
      <point x="381" y="564" type="line"/>
      <point x="396" y="564" type="line" smooth="yes"/>
      <point x="438" y="564"/>
      <point x="464" y="541"/>
      <point x="464" y="500" type="curve" smooth="yes"/>
      <point x="464" y="465" type="line" smooth="yes"/>
      <point x="464" y="424"/>
      <point x="438" y="401"/>
      <point x="396" y="401" type="curve" smooth="yes"/>
    </contour>
    <contour>
      <point x="208" y="133" type="line"/>
      <point x="208" y="300" type="line"/>
      <point x="286" y="300" type="line"/>
      <point x="286" y="133" type="line"/>
    </contour>
    <contour>
      <point x="208" y="401" type="line"/>
      <point x="208" y="564" type="line"/>
      <point x="286" y="564" type="line"/>
      <point x="286" y="401" type="line"/>
    </contour>
  </outline>
</glyph>
<glyph name="saraE-thai" format="1">
  <advance width="326"/>
  <unicode hex="0E40"/>
  <outline>
    <contour>
      <point x="230" y="0" type="curve" smooth="yes" name="hr00"/>
      <point x="300" y="0" type="line"/>
      <point x="300" y="115" type="line"/>
      <point x="231" y="115" type="line"/>
      <point x="231" y="554" type="line"/>
      <point x="83" y="554" type="line"/>
      <point x="83" y="144" type="line" smooth="yes"/>
      <point x="83" y="51"/>
      <point x="129" y="0"/>
    </contour>
    <contour>
      <point x="269.0" y="0.0" type="move" name="bottomright"/>
    </contour>
    <contour>
      <point x="231.0" y="600.0" type="move" name="topright"/>
    </contour>
  </outline>
</glyph>
<glyph name="saraAiMaimuan-thai" format="1">
  <advance width="326"/>
  <unicode hex="0E43"/>
  <outline>
    <contour>
      <point x="230" y="0" type="curve" smooth="yes" name="hr00"/>
      <point x="300" y="0" type="line"/>
      <point x="300" y="115" type="line"/>
      <point x="231" y="115" type="line"/>
      <point x="231" y="514" type="line" smooth="yes"/>
      <point x="231" y="553"/>
      <point x="261" y="584"/>
      <point x="292" y="620" type="curve" smooth="yes"/>
      <point x="323" y="656"/>
      <point x="354" y="696"/>
      <point x="354" y="752" type="curve" smooth="yes"/>
      <point x="354" y="856"/>
      <point x="272" y="917"/>
      <point x="163" y="917" type="curve" smooth="yes"/>
      <point x="35" y="917"/>
      <point x="-24" y="849"/>
      <point x="-51" y="776" type="curve"/>
      <point x="56" y="716" type="line"/>
      <point x="73" y="770"/>
      <point x="100" y="801"/>
      <point x="147" y="801" type="curve" smooth="yes"/>
      <point x="188" y="801"/>
      <point x="213" y="778"/>
      <point x="213" y="735" type="curve" smooth="yes"/>
      <point x="213" y="698"/>
      <point x="190" y="672"/>
      <point x="164" y="646" type="curve" smooth="yes"/>
      <point x="127" y="610"/>
      <point x="83" y="574"/>
      <point x="83" y="509" type="curve" smooth="yes"/>
      <point x="83" y="144" type="line" smooth="yes"/>
      <point x="83" y="51"/>
      <point x="129" y="0"/>
    </contour>
  </outline>
</glyph>
<glyph name="saraAiMaimalai-thai" format="1">
  <advance width="326"/>
  <unicode hex="0E44"/>
  <outline>
    <contour>
      <point x="230" y="0" type="curve" smooth="yes" name="hr00"/>
      <point x="300" y="0" type="line"/>
      <point x="300" y="115" type="line"/>
      <point x="231" y="115" type="line"/>
      <point x="231" y="698" type="line" smooth="yes"/>
      <point x="231" y="756"/>
      <point x="263" y="790"/>
      <point x="315" y="790" type="curve" smooth="yes"/>
      <point x="329" y="790" type="line"/>
      <point x="329" y="905" type="line"/>
      <point x="-35" y="905" type="line"/>
      <point x="-35" y="790" type="line"/>
      <point x="180" y="790" type="line"/>
      <point x="180" y="785" type="line"/>
      <point x="128" y="772"/>
      <point x="83" y="734"/>
      <point x="83" y="657" type="curve" smooth="yes"/>
      <point x="83" y="144" type="line" smooth="yes"/>
      <point x="83" y="51"/>
      <point x="129" y="0"/>
    </contour>
  </outline>
</glyph>
<glyph name="lakkhangyao-thai" format="1">
  <advance width="519"/>
  <unicode hex="0E45"/>
  <outline>
    <contour>
      <point x="308" y="-200" type="line" name="hr00"/>
      <point x="456" y="-200" type="line"/>
      <point x="456" y="374" type="line" smooth="yes"/>
      <point x="456" y="498"/>
      <point x="380" y="566"/>
      <point x="235" y="566" type="curve" smooth="yes"/>
      <point x="126" y="566"/>
      <point x="68" y="528"/>
      <point x="26" y="466" type="curve"/>
      <point x="114" y="388" type="line"/>
      <point x="136" y="420"/>
      <point x="167" y="449"/>
      <point x="224" y="449" type="curve" smooth="yes"/>
      <point x="283" y="449"/>
      <point x="308" y="418"/>
      <point x="308" y="367" type="curve" smooth="yes"/>
    </contour>
    <contour>
      <point x="456.0" y="600.0" type="move" name="topright"/>
    </contour>
  </outline>
</glyph>
<glyph name="maiyamok-thai" format="1">
  <advance width="601"/>
  <unicode hex="0E46"/>
  <outline>
    <contour>
      <point x="384" y="-200" type="line" name="hr00"/>
      <point x="532" y="-200" type="line"/>
      <point x="532" y="410" type="line" smooth="yes"/>
      <point x="532" y="511"/>
      <point x="488" y="566"/>
      <point x="398" y="566" type="curve" smooth="yes"/>
      <point x="332" y="566"/>
      <point x="292" y="526"/>
      <point x="283" y="482" type="curve"/>
      <point x="275" y="482" type="line"/>
      <point x="267" y="526"/>
      <point x="227" y="566"/>
      <point x="161" y="566" type="curve" smooth="yes"/>
      <point x="71" y="566"/>
      <point x="27" y="507"/>
      <point x="27" y="400" type="curve" smooth="yes"/>
      <point x="27" y="271"/>
      <point x="95" y="210"/>
      <point x="197" y="210" type="curve" smooth="yes"/>
      <point x="216" y="210"/>
      <point x="238" y="213"/>
      <point x="248" y="217" type="curve"/>
      <point x="239" y="315" type="line"/>
      <point x="233" y="313"/>
      <point x="227" y="312"/>
      <point x="216" y="312" type="curve" smooth="yes"/>
      <point x="176" y="312"/>
      <point x="165" y="334"/>
      <point x="165" y="365" type="curve" smooth="yes"/>
      <point x="165" y="408" type="line" smooth="yes"/>
      <point x="165" y="429"/>
      <point x="174" y="446"/>
      <point x="196" y="446" type="curve" smooth="yes"/>
      <point x="214" y="446"/>
      <point x="228" y="429"/>
      <point x="228" y="380" type="curve"/>
      <point x="321" y="380" type="line"/>
      <point x="322" y="428"/>
      <point x="336" y="446"/>
      <point x="356" y="446" type="curve" smooth="yes"/>
      <point x="372" y="446"/>
      <point x="384" y="437"/>
      <point x="384" y="412" type="curve" smooth="yes"/>
    </contour>
  </outline>
</glyph>
<glyph name="maitaikhu-thai" format="1">
  <advance width="0"/>
  <unicode hex="0E47"/>
  <outline>
    <contour>
      <point x="-317" y="626" type="curve" smooth="yes" name="hr00"/>
      <point x="-273" y="626"/>
      <point x="-232" y="642"/>
      <point x="-217" y="691" type="curve"/>
      <point x="-212" y="691" type="line"/>
      <point x="-198" y="640"/>
      <point x="-148" y="626"/>
      <point x="-114" y="626" type="curve" smooth="yes"/>
      <point x="-44" y="626"/>
      <point x="0" y="667"/>
      <point x="0" y="741" type="curve" smooth="yes"/>
      <point x="0" y="777" type="line"/>
      <point x="-107" y="777" type="line"/>
      <point x="-107" y="751" type="line" smooth="yes"/>
      <point x="-107" y="724"/>
      <point x="-122" y="710"/>
      <point x="-139" y="710" type="curve" smooth="yes"/>
      <point x="-165" y="710"/>
      <point x="-175" y="739"/>
      <point x="-177" y="762" type="curve"/>
      <point x="-255" y="762" type="line"/>
      <point x="-255" y="741"/>
      <point x="-261" y="710"/>
      <point x="-290" y="710" type="curve" smooth="yes"/>
      <point x="-312" y="710"/>
      <point x="-324" y="727"/>
      <point x="-324" y="753" type="curve" smooth="yes"/>
      <point x="-324" y="781"/>
      <point x="-310" y="801"/>
      <point x="-285" y="801" type="curve" smooth="yes"/>
      <point x="0" y="801" type="line"/>
      <point x="0" y="888" type="line"/>
      <point x="-288" y="888" type="line" smooth="yes"/>
      <point x="-377" y="888"/>
      <point x="-431" y="832"/>
      <point x="-431" y="750" type="curve" smooth="yes"/>
      <point x="-431" y="673"/>
      <point x="-384" y="626"/>
    </contour>
    <contour>
      <point x="0.0" y="600.0" type="move" name="_topright"/>
    </contour>
    <contour>
      <point x="0.0" y="834.0" type="move" name="topright"/>
    </contour>
  </outline>
</glyph>
<glyph name="maiTri-thai" format="1">
  <advance width="0"/>
  <unicode hex="0E4A"/>
  <outline>
    <contour>
      <point x="-439" y="645" type="line" name="hr00"/>
      <point x="-329" y="645" type="line"/>
      <point x="-329" y="727" type="line" smooth="yes"/>
      <point x="-329" y="749"/>
      <point x="-320" y="763"/>
      <point x="-299" y="763" type="curve" smooth="yes"/>
      <point x="-281" y="763"/>
      <point x="-268" y="752"/>
      <point x="-268" y="723" type="curve" smooth="yes"/>
      <point x="-268" y="692" type="line"/>
      <point x="-188" y="692" type="line"/>
      <point x="-188" y="723" type="line" smooth="yes"/>
      <point x="-188" y="752"/>
      <point x="-175" y="763"/>
      <point x="-157" y="763" type="curve" smooth="yes"/>
      <point x="-136" y="763"/>
      <point x="-127" y="749"/>
      <point x="-127" y="727" type="curve" smooth="yes"/>
      <point x="-127" y="645" type="line"/>
      <point x="55" y="645" type="line"/>
      <point x="55" y="747" type="line"/>
      <point x="-18" y="747" type="line"/>
      <point x="-18" y="811"/>
      <point x="-55" y="859"/>
      <point x="-124" y="859" type="curve" smooth="yes"/>
      <point x="-175" y="859"/>
      <point x="-215" y="837"/>
      <point x="-225" y="786" type="curve"/>
      <point x="-231" y="786" type="line"/>
      <point x="-241" y="837"/>
      <point x="-282" y="859"/>
      <point x="-332" y="859" type="curve" smooth="yes"/>
      <point x="-401" y="859"/>
      <point x="-439" y="812"/>
      <point x="-439" y="746" type="curve" smooth="yes"/>
    </contour>
    <contour>
      <point x="0.0" y="600.0" type="move" name="_topright"/>
    </contour>
    <contour>
      <point x="0.0" y="800.0" type="move" name="topright"/>
    </contour>
  </outline>
</glyph>
<glyph name="one-thai" format="1">
  <advance width="554"/>
  <unicode hex="0E51"/>
  <outline>
    <contour>
      <point x="182" y="-47" type="line" name="hr00"/>
      <point x="392" y="-34"/>
      <point x="511" y="60"/>
      <point x="511" y="256" type="curve" smooth="yes"/>
      <point x="511" y="417"/>
      <point x="418" y="518"/>
      <point x="266" y="518" type="curve" smooth="yes"/>
      <point x="121" y="518"/>
      <point x="30" y="442"/>
      <point x="30" y="321" type="curve" smooth="yes"/>
      <point x="30" y="204"/>
      <point x="94" y="146"/>
      <point x="199" y="146" type="curve" smooth="yes"/>
      <point x="216" y="146"/>
      <point x="241" y="149"/>
      <point x="252" y="153" type="curve"/>
      <point x="244" y="257" type="line"/>
      <point x="233" y="256"/>
      <point x="228" y="256"/>
      <point x="218" y="256" type="curve" smooth="yes"/>
      <point x="178" y="256"/>
      <point x="173" y="285"/>
      <point x="173" y="312" type="curve" smooth="yes"/>
      <point x="173" y="330" type="line" smooth="yes"/>
      <point x="173" y="370"/>
      <point x="209" y="401"/>
      <point x="259" y="401" type="curve" smooth="yes"/>
      <point x="319" y="401"/>
      <point x="357" y="359"/>
      <point x="357" y="288" type="curve" smooth="yes"/>
      <point x="357" y="222" type="line" smooth="yes"/>
      <point x="357" y="133"/>
      <point x="313" y="79"/>
      <point x="165" y="72" type="curve"/>
    </contour>
  </outline>
</glyph>
<glyph name="two-thai" format="1">
  <advance width="834"/>
  <unicode hex="0E52"/>
  <outline>
    <contour>
      <point x="420" y="-12" type="curve" smooth="yes" name="hr00"/>
      <point x="743" y="-12"/>
      <point x="771" y="116"/>
      <point x="771" y="222" type="curve" smooth="yes"/>
      <point x="771" y="367" type="line" smooth="yes"/>
      <point x="771" y="463"/>
      <point x="728" y="518"/>
      <point x="638" y="518" type="curve" smooth="yes"/>
      <point x="572" y="518"/>
      <point x="532" y="478"/>
      <point x="523" y="434" type="curve"/>
      <point x="515" y="434" type="line"/>
      <point x="507" y="478"/>
      <point x="467" y="518"/>
      <point x="401" y="518" type="curve" smooth="yes"/>
      <point x="311" y="518"/>
      <point x="269" y="456"/>
      <point x="269" y="345" type="curve" smooth="yes"/>
      <point x="269" y="233"/>
      <point x="316" y="172"/>
      <point x="428" y="172" type="curve" smooth="yes"/>
      <point x="452" y="172"/>
      <point x="477" y="175"/>
      <point x="490" y="180" type="curve"/>
      <point x="480" y="268" type="line"/>
      <point x="476" y="266"/>
      <point x="469" y="264"/>
      <point x="456" y="264" type="curve" smooth="yes"/>
      <point x="418" y="264"/>
      <point x="407" y="288"/>
      <point x="407" y="317" type="curve" smooth="yes"/>
      <point x="407" y="360" type="line" smooth="yes"/>
      <point x="407" y="381"/>
      <point x="416" y="398"/>
      <point x="437" y="398" type="curve" smooth="yes"/>
      <point x="456" y="398"/>
      <point x="470" y="381"/>
      <point x="470" y="332" type="curve"/>
      <point x="562" y="332" type="line"/>
      <point x="563" y="380"/>
      <point x="577" y="398"/>
      <point x="595" y="398" type="curve" smooth="yes"/>
      <point x="610" y="398"/>
      <point x="623" y="389"/>
      <point x="623" y="364" type="curve" smooth="yes"/>
      <point x="623" y="225" type="line" smooth="yes"/>
      <point x="623" y="187"/>
      <point x="613" y="156"/>
      <point x="589" y="135" type="curve" smooth="yes"/>
      <point x="567" y="116"/>
      <point x="533" y="104"/>
      <point x="482" y="104" type="curve" smooth="yes"/>
      <point x="358" y="104" type="line" smooth="yes"/>
      <point x="307" y="104"/>
      <point x="273" y="116"/>
      <point x="251" y="135" type="curve" smooth="yes"/>
      <point x="227" y="156"/>
      <point x="217" y="187"/>
      <point x="217" y="225" type="curve" smooth="yes"/>
      <point x="217" y="606" type="line"/>
      <point x="69" y="606" type="line"/>
      <point x="69" y="222" type="line" smooth="yes"/>
      <point x="69" y="116"/>
      <point x="97" y="-12"/>
    </contour>
  </outline>
</glyph>
<glyph name="three-thai" format="1">
  <advance width="741"/>
  <unicode hex="0E53"/>
  <outline>
    <contour>
      <point x="279" y="-12" type="curve" smooth="yes" name="hr00"/>
      <point x="303" y="-12"/>
      <point x="337" y="-9"/>
      <point x="352" y="-4" type="curve"/>
      <point x="335" y="114" type="line"/>
      <point x="322" y="111"/>
      <point x="313" y="110"/>
      <point x="301" y="110" type="curve" smooth="yes"/>
      <point x="219" y="110"/>
      <point x="195" y="156"/>
      <point x="195" y="229" type="curve" smooth="yes"/>
      <point x="195" y="305" type="line" smooth="yes"/>
      <point x="195" y="360"/>
      <point x="212" y="398"/>
      <point x="249" y="398" type="curve" smooth="yes"/>
      <point x="280" y="398"/>
      <point x="295" y="376"/>
      <point x="295" y="331" type="curve" smooth="yes"/>
      <point x="295" y="195" type="line"/>
      <point x="430" y="195" type="line"/>
      <point x="430" y="331" type="line" smooth="yes"/>
      <point x="430" y="376"/>
      <point x="449" y="398"/>
      <point x="480" y="398" type="curve" smooth="yes"/>
      <point x="511" y="398"/>
      <point x="530" y="376"/>
      <point x="530" y="331" type="curve" smooth="yes"/>
      <point x="530" y="0" type="line"/>
      <point x="678" y="0" type="line"/>
      <point x="678" y="341" type="line" smooth="yes"/>
      <point x="678" y="456"/>
      <point x="620" y="518"/>
      <point x="512" y="518" type="curve" smooth="yes"/>
      <point x="419" y="518"/>
      <point x="381" y="469"/>
      <point x="370" y="434" type="curve"/>
      <point x="362" y="434" type="line"/>
      <point x="352" y="469"/>
      <point x="313" y="518"/>
      <point x="234" y="518" type="curve" smooth="yes"/>
      <point x="102" y="518"/>
      <point x="40" y="423"/>
      <point x="40" y="272" type="curve" smooth="yes"/>
      <point x="40" y="85"/>
      <point x="127" y="-12"/>
    </contour>
  </outline>
</glyph>
<glyph name="five-thai" format="1">
  <advance width="554"/>
  <unicode hex="0E55"/>
  <outline>
    <contour>
      <point x="315" y="0" type="curve" name="hr00"/>
      <point x="525" y="0" type="line"/>
      <point x="525" y="118" type="line"/>
      <point x="470" y="118"/>
      <point x="445" y="169"/>
      <point x="445" y="208" type="curve" smooth="yes"/>
      <point x="445" y="229" type="line"/>
      <point x="509" y="229" type="line"/>
      <point x="509" y="344" type="line"/>
      <point x="442" y="344" type="line" smooth="yes"/>
      <point x="342" y="344"/>
      <point x="295" y="306"/>
      <point x="295" y="247" type="curve" smooth="yes"/>
      <point x="295" y="239" type="line" smooth="yes"/>
      <point x="295" y="165"/>
      <point x="357" y="133"/>
      <point x="420" y="123" type="curve"/>
      <point x="420" y="118" type="line"/>
      <point x="315" y="118" type="line" smooth="yes"/>
      <point x="217" y="118"/>
      <point x="198" y="162"/>
      <point x="198" y="214" type="curve" smooth="yes"/>
      <point x="198" y="266" type="line" smooth="yes"/>
      <point x="198" y="335"/>
      <point x="228" y="363"/>
      <point x="292" y="381" type="curve" smooth="yes"/>
      <point x="411" y="415" type="line" smooth="yes"/>
      <point x="497" y="440"/>
      <point x="506" y="472"/>
      <point x="511" y="513" type="curve" smooth="yes"/>
      <point x="522" y="606" type="line"/>
      <point x="395" y="606" type="line"/>
      <point x="386" y="543" type="line" smooth="yes"/>
      <point x="382" y="515"/>
      <point x="368" y="509"/>
      <point x="348" y="503" type="curve" smooth="yes"/>
      <point x="344" y="502" type="line"/>
      <point x="347" y="512"/>
      <point x="349" y="523"/>
      <point x="349" y="534" type="curve" smooth="yes"/>
      <point x="349" y="593"/>
      <point x="303" y="633"/>
      <point x="231" y="633" type="curve" smooth="yes"/>
      <point x="155" y="633"/>
      <point x="106" y="589"/>
      <point x="106" y="519" type="curve" smooth="yes"/>
      <point x="106" y="482"/>
      <point x="124" y="454"/>
      <point x="155" y="439" type="curve"/>
      <point x="96" y="412"/>
      <point x="43" y="359"/>
      <point x="43" y="245" type="curve" smooth="yes"/>
      <point x="43" y="86"/>
      <point x="135" y="0"/>
    </contour>
    <contour>
      <point x="230" y="469" type="curve" smooth="yes"/>
      <point x="201" y="469"/>
      <point x="185" y="484"/>
      <point x="185" y="511" type="curve" smooth="yes"/>
      <point x="185" y="521" type="line" smooth="yes"/>
      <point x="185" y="548"/>
      <point x="201" y="563"/>
      <point x="230" y="563" type="curve" smooth="yes"/>
      <point x="259" y="563"/>
      <point x="275" y="548"/>
      <point x="275" y="521" type="curve" smooth="yes"/>
      <point x="275" y="511" type="line" smooth="yes"/>
      <point x="275" y="484"/>
      <point x="259" y="469"/>
    </contour>
  </outline>
</glyph>
<glyph name="six-thai" format="1">
  <advance width="554"/>
  <unicode hex="0E56"/>
  <outline>
    <contour>
      <point x="258" y="-12" type="curve" smooth="yes" name="hr00"/>
      <point x="414" y="-12"/>
      <point x="511" y="90"/>
      <point x="511" y="256" type="curve" smooth="yes"/>
      <point x="511" y="418"/>
      <point x="436" y="518"/>
      <point x="315" y="518" type="curve" smooth="yes"/>
      <point x="232" y="518"/>
      <point x="182" y="472"/>
      <point x="168" y="401" type="curve"/>
      <point x="162" y="401" type="line"/>
      <point x="136" y="606" type="line"/>
      <point x="0" y="606" type="line"/>
      <point x="47" y="327" type="line"/>
      <point x="169" y="321" type="line"/>
      <point x="180" y="369"/>
      <point x="214" y="401"/>
      <point x="265" y="401" type="curve" smooth="yes"/>
      <point x="320" y="401"/>
      <point x="356" y="367"/>
      <point x="356" y="308" type="curve" smooth="yes"/>
      <point x="356" y="201" type="line" smooth="yes"/>
      <point x="356" y="141"/>
      <point x="315" y="105"/>
      <point x="249" y="105" type="curve" smooth="yes"/>
      <point x="191" y="105"/>
      <point x="163" y="141"/>
      <point x="146" y="189" type="curve"/>
      <point x="32" y="138" type="line"/>
      <point x="69" y="35"/>
      <point x="150" y="-12"/>
    </contour>
  </outline>
</glyph>
<glyph name="seven-thai" format="1">
  <advance width="855"/>
  <unicode hex="0E57"/>
  <outline>
    <contour>
      <point x="259" y="-12" type="curve" smooth="yes" name="hr00"/>
      <point x="283" y="-12"/>
      <point x="317" y="-9"/>
      <point x="332" y="-4" type="curve"/>
      <point x="315" y="114" type="line"/>
      <point x="302" y="111"/>
      <point x="293" y="110"/>
      <point x="281" y="110" type="curve" smooth="yes"/>
      <point x="219" y="110"/>
      <point x="195" y="156"/>
      <point x="195" y="229" type="curve" smooth="yes"/>
      <point x="195" y="325" type="line" smooth="yes"/>
      <point x="195" y="381"/>
      <point x="209" y="398"/>
      <point x="230" y="398" type="curve" smooth="yes"/>
      <point x="249" y="398"/>
      <point x="262" y="381"/>
      <point x="262" y="332" type="curve"/>
      <point x="354" y="332" type="line"/>
      <point x="355" y="380"/>
      <point x="368" y="398"/>
      <point x="390" y="398" type="curve" smooth="yes"/>
      <point x="406" y="398"/>
      <point x="421" y="387"/>
      <point x="421" y="355" type="curve" smooth="yes"/>
      <point x="421" y="0" type="line"/>
      <point x="573" y="0" type="line" smooth="yes"/>
      <point x="716" y="0"/>
      <point x="792" y="77"/>
      <point x="792" y="205" type="curve" smooth="yes"/>
      <point x="792" y="606" type="line"/>
      <point x="644" y="606" type="line"/>
      <point x="644" y="217" type="line" smooth="yes"/>
      <point x="644" y="144"/>
      <point x="621" y="108"/>
      <point x="573" y="108" type="curve" smooth="yes"/>
      <point x="566" y="108" type="line"/>
      <point x="566" y="352" type="line" smooth="yes"/>
      <point x="566" y="460"/>
      <point x="520" y="518"/>
      <point x="429" y="518" type="curve" smooth="yes"/>
      <point x="362" y="518"/>
      <point x="324" y="478"/>
      <point x="315" y="434" type="curve"/>
      <point x="307" y="434" type="line"/>
      <point x="299" y="478"/>
      <point x="258" y="518"/>
      <point x="192" y="518" type="curve" smooth="yes"/>
      <point x="85" y="518"/>
      <point x="40" y="432"/>
      <point x="40" y="272" type="curve" smooth="yes"/>
      <point x="40" y="85"/>
      <point x="120" y="-12"/>
    </contour>
  </outline>
</glyph>
<glyph name="eight-thai" format="1">
  <advance width="633"/>
  <unicode hex="0E58"/>
  <outline>
    <contour>
      <point x="209" y="-12" type="curve" smooth="yes" name="hr00"/>
      <point x="279" y="-12"/>
      <point x="313" y="25"/>
      <point x="324" y="72" type="curve"/>
      <point x="331" y="72" type="line"/>
      <point x="344" y="25"/>
      <point x="373" y="-12"/>
      <point x="449" y="-12" type="curve" smooth="yes"/>
      <point x="544" y="-12"/>
      <point x="603" y="53"/>
      <point x="603" y="172" type="curve" smooth="yes"/>
      <point x="603" y="274"/>
      <point x="543" y="324"/>
      <point x="463" y="324" type="curve" smooth="yes"/>
      <point x="445" y="324"/>
      <point x="422" y="321"/>
      <point x="412" y="317" type="curve"/>
      <point x="421" y="224" type="line"/>
      <point x="428" y="226"/>
      <point x="433" y="226"/>
      <point x="435" y="226" type="curve" smooth="yes"/>
      <point x="459" y="226"/>
      <point x="467" y="210"/>
      <point x="467" y="193" type="curve" smooth="yes"/>
      <point x="467" y="149" type="line" smooth="yes"/>
      <point x="467" y="123"/>
      <point x="451" y="105"/>
      <point x="424" y="105" type="curve" smooth="yes"/>
      <point x="390" y="105"/>
      <point x="380" y="128"/>
      <point x="380" y="172" type="curve" smooth="yes"/>
      <point x="380" y="201" type="line"/>
      <point x="279" y="201" type="line"/>
      <point x="279" y="172" type="line" smooth="yes"/>
      <point x="279" y="128"/>
      <point x="271" y="106"/>
      <point x="239" y="106" type="curve" smooth="yes"/>
      <point x="204" y="106"/>
      <point x="195" y="135"/>
      <point x="195" y="188" type="curve" smooth="yes"/>
      <point x="195" y="250" type="line" smooth="yes"/>
      <point x="195" y="334"/>
      <point x="226" y="369"/>
      <point x="290" y="381" type="curve" smooth="yes"/>
      <point x="478" y="415" type="line" smooth="yes"/>
      <point x="554" y="429"/>
      <point x="574" y="458"/>
      <point x="578" y="513" type="curve" smooth="yes"/>
      <point x="588" y="606" type="line"/>
      <point x="457" y="606" type="line"/>
      <point x="448" y="543" type="line" smooth="yes"/>
      <point x="445" y="519"/>
      <point x="431" y="509"/>
      <point x="397" y="502" type="curve" smooth="yes"/>
      <point x="225" y="471" type="line" smooth="yes"/>
      <point x="139" y="456"/>
      <point x="40" y="409"/>
      <point x="40" y="223" type="curve" smooth="yes"/>
      <point x="40" y="64"/>
      <point x="103" y="-12"/>
    </contour>
  </outline>
</glyph>
<glyph name="nine-thai" format="1">
  <advance width="702"/>
  <unicode hex="0E59"/>
  <outline>
    <contour>
      <point x="250" y="-10" type="curve" smooth="yes" name="hr00"/>
      <point x="267" y="-10"/>
      <point x="289" y="-9"/>
      <point x="303" y="-7" type="curve"/>
      <point x="300" y="110" type="line"/>
      <point x="283" y="108"/>
      <point x="277" y="108"/>
      <point x="267" y="108" type="curve" smooth="yes"/>
      <point x="212" y="108"/>
      <point x="192" y="142"/>
      <point x="192" y="193" type="curve" smooth="yes"/>
      <point x="192" y="324" type="line" smooth="yes"/>
      <point x="192" y="366"/>
      <point x="205" y="397"/>
      <point x="238" y="397" type="curve" smooth="yes"/>
      <point x="272" y="397"/>
      <point x="290" y="376"/>
      <point x="310" y="311" type="curve" smooth="yes"/>
      <point x="407" y="0" type="line"/>
      <point x="559" y="0" type="line"/>
      <point x="464" y="292" type="line" smooth="yes"/>
      <point x="458" y="311"/>
      <point x="455" y="327"/>
      <point x="455" y="341" type="curve" smooth="yes"/>
      <point x="455" y="379"/>
      <point x="475" y="397"/>
      <point x="504" y="397" type="curve" smooth="yes"/>
      <point x="544" y="397"/>
      <point x="562" y="364"/>
      <point x="562" y="321" type="curve"/>
      <point x="684" y="327" type="line"/>
      <point x="731" y="606" type="line"/>
      <point x="594" y="606" type="line"/>
      <point x="570" y="401" type="line"/>
      <point x="565" y="401" type="line"/>
      <point x="566" y="472"/>
      <point x="543" y="518"/>
      <point x="485" y="518" type="curve" smooth="yes"/>
      <point x="441" y="518"/>
      <point x="403" y="485"/>
      <point x="403" y="423" type="curve" smooth="yes"/>
      <point x="403" y="408"/>
      <point x="405" y="391"/>
      <point x="410" y="372" type="curve"/>
      <point x="405" y="370" type="line"/>
      <point x="369" y="476"/>
      <point x="309" y="518"/>
      <point x="232" y="518" type="curve" smooth="yes"/>
      <point x="106" y="518"/>
      <point x="40" y="426"/>
      <point x="40" y="273" type="curve" smooth="yes"/>
      <point x="40" y="80"/>
      <point x="115" y="-10"/>
    </contour>
  </outline>
</glyph>
<glyph name="khomut-thai" format="1">
  <advance width="1458"/>
  <unicode hex="0E5B"/>
  <outline>
    <contour>
      <point x="340" y="-12" type="curve" smooth="yes" name="hr00"/>
      <point x="493" y="-12"/>
      <point x="629" y="41"/>
      <point x="679" y="312" type="curve"/>
      <point x="682" y="312" type="line"/>
      <point x="758" y="71" type="line"/>
      <point x="870" y="71" type="line"/>
      <point x="933" y="271" type="line"/>
      <point x="936" y="271" type="line"/>
      <point x="989" y="103" type="line"/>
      <point x="1102" y="103" type="line"/>
      <point x="1155" y="271" type="line"/>
      <point x="1158" y="271" type="line"/>
      <point x="1201" y="192"/>
      <point x="1247" y="167"/>
      <point x="1336" y="167" type="curve" smooth="yes"/>
      <point x="1409" y="167" type="line"/>
      <point x="1409" y="290" type="line"/>
      <point x="1341" y="290" type="line" smooth="yes"/>
      <point x="1242" y="290"/>
      <point x="1211" y="355"/>
      <point x="1203" y="430" type="curve"/>
      <point x="1091" y="430" type="line"/>
      <point x="1047" y="290" type="line"/>
      <point x="1044" y="290" type="line"/>
      <point x="991" y="459" type="line"/>
      <point x="879" y="459" type="line"/>
      <point x="816" y="258" type="line"/>
      <point x="813" y="258" type="line"/>
      <point x="736" y="502" type="line"/>
      <point x="592" y="502" type="line"/>
      <point x="568" y="176"/>
      <point x="476" y="105"/>
      <point x="345" y="105" type="curve" smooth="yes"/>
      <point x="252" y="105"/>
      <point x="203" y="152"/>
      <point x="203" y="236" type="curve" smooth="yes"/>
      <point x="203" y="318" type="line" smooth="yes"/>
      <point x="203" y="402"/>
      <point x="253" y="449"/>
      <point x="324" y="449" type="curve" smooth="yes"/>
      <point x="379" y="449"/>
      <point x="413" y="423"/>
      <point x="433" y="395" type="curve"/>
      <point x="514" y="481" type="line"/>
      <point x="481" y="526"/>
      <point x="414" y="566"/>
      <point x="314" y="566" type="curve" smooth="yes"/>
      <point x="162" y="566"/>
      <point x="49" y="468"/>
      <point x="49" y="277" type="curve" smooth="yes"/>
      <point x="49" y="86"/>
      <point x="160" y="-12"/>
    </contour>
  </outline>
</glyph>
<glyph name="emdash" format="1">
  <advance width="780"/>
  <unicode hex="2014"/>
  <outline>
    <contour>
      <point x="744" y="244" type="line" name="hr00"/>
      <point x="744" y="364" type="line"/>
      <point x="36" y="364" type="line"/>
      <point x="36" y="244" type="line"/>
    </contour>
  </outline>
</glyph>
<glyph name="dagger" format="1">
  <advance width="522"/>
  <unicode hex="2020"/>
  <outline>
    <contour>
      <point x="324" y="-200" type="line" name="hr00"/>
      <point x="324" y="408" type="line"/>
      <point x="496" y="408" type="line"/>
      <point x="496" y="516" type="line"/>
      <point x="324" y="516" type="line"/>
      <point x="324" y="740" type="line"/>
      <point x="198" y="740" type="line"/>
      <point x="198" y="516" type="line"/>
      <point x="26" y="516" type="line"/>
      <point x="26" y="408" type="line"/>
      <point x="198" y="408" type="line"/>
      <point x="198" y="-200" type="line"/>
    </contour>
  </outline>
</glyph>
<glyph name="bullet" format="1">
  <advance width="430"/>
  <unicode hex="2022"/>
  <outline>
    <contour>
      <point x="215" y="150" type="curve" smooth="yes" name="hr00"/>
      <point x="326" y="150"/>
      <point x="368" y="206"/>
      <point x="368" y="281" type="curve" smooth="yes"/>
      <point x="368" y="317" type="line" smooth="yes"/>
      <point x="368" y="392"/>
      <point x="326" y="448"/>
      <point x="215" y="448" type="curve" smooth="yes"/>
      <point x="104" y="448"/>
      <point x="62" y="392"/>
      <point x="62" y="317" type="curve" smooth="yes"/>
      <point x="62" y="281" type="line" smooth="yes"/>
      <point x="62" y="206"/>
      <point x="104" y="150"/>
    </contour>
  </outline>
</glyph>
<glyph name="cedi" format="1">
  <advance width="607"/>
  <unicode hex="20B5"/>
  <outline>
    <contour>
      <point x="314" y="-82" type="line" name="hr00"/>
      <point x="329" y="8" type="line"/>
      <point x="352" y="8" type="line" smooth="yes"/>
      <point x="474" y="8"/>
      <point x="541" y="71"/>
      <point x="577" y="128" type="curve"/>
      <point x="474" y="203" type="line"/>
      <point x="445" y="149"/>
      <point x="403" y="123"/>
      <point x="352" y="123" type="curve" smooth="yes"/>
      <point x="339" y="123" type="line"/>
      <point x="415" y="561" type="line"/>
      <point x="440" y="548"/>
      <point x="460" y="528"/>
      <point x="475" y="502" type="curve"/>
      <point x="578" y="576" type="line"/>
      <point x="549" y="620"/>
      <point x="508" y="659"/>
      <point x="446" y="678" type="curve"/>
      <point x="464" y="780" type="line"/>
      <point x="349" y="780" type="line"/>
      <point x="333" y="689" type="line"/>
      <point x="165" y="678"/>
      <point x="50" y="553"/>
      <point x="50" y="349" type="curve" smooth="yes"/>
      <point x="50" y="194"/>
      <point x="116" y="84"/>
      <point x="219" y="36" type="curve"/>
      <point x="199" y="-82" type="line"/>
    </contour>
    <contour>
      <point x="202" y="292" type="curve"/>
      <point x="202" y="407" type="line" smooth="yes"/>
      <point x="202" y="498"/>
      <point x="253" y="559"/>
      <point x="322" y="573" type="curve"/>
      <point x="250" y="164" type="line"/>
      <point x="220" y="193"/>
      <point x="202" y="237"/>
    </contour>
  </outline>
</glyph>
<glyph name="arrowright" format="1">
  <advance width="900"/>
  <unicode hex="2192"/>
  <outline>
    <contour>
      <point x="805" y="349" type="line" name="hr00"/>
      <point x="566" y="588" type="line"/>
      <point x="486" y="508" type="line"/>
      <point x="546" y="448" type="line"/>
      <point x="590" y="410" type="line"/>
      <point x="589" y="406" type="line"/>
      <point x="509" y="410" type="line"/>
      <point x="95" y="410" type="line"/>
      <point x="95" y="288" type="line"/>
      <point x="509" y="288" type="line"/>
      <point x="589" y="292" type="line"/>
      <point x="590" y="288" type="line"/>
      <point x="546" y="250" type="line"/>
      <point x="486" y="190" type="line"/>
      <point x="566" y="110" type="line"/>
    </contour>
  </outline>
</glyph>
<glyph name="Delta" format="1">
  <advance width="684"/>
  <unicode hex="2206"/>
  <outline>
    <contour>
      <point x="49" y="0" type="line" name="hr00"/>
      <point x="635" y="0" type="line"/>
      <point x="635" y="121" type="line"/>
      <point x="436" y="698" type="line"/>
      <point x="248" y="698" type="line"/>
      <point x="49" y="121" type="line"/>
    </contour>
    <contour>
      <point x="475" y="135" type="line"/>
      <point x="204" y="135" type="line"/>
      <point x="337" y="560" type="line"/>
      <point x="342" y="560" type="line"/>
    </contour>
  </outline>
</glyph>
<glyph name="dottedCircle" format="1">
  <advance width="714"/>
  <unicode hex="25CC"/>
  <outline>
    <contour>
      <point x="126" y="108" type="curve" smooth="yes" name="hr00"/>
      <point x="151" y="108"/>
      <point x="171" y="129"/>
      <point x="171" y="153" type="curve" smooth="yes"/>
      <point x="171" y="178"/>
      <point x="151" y="198"/>
      <point x="126" y="198" type="curve" smooth="yes"/>
      <point x="101" y="198"/>
      <point x="81" y="178"/>
      <point x="81" y="153" type="curve" smooth="yes"/>
      <point x="81" y="129"/>
      <point x="101" y="108"/>
    </contour>
    <contour>
      <point x="75" y="232" type="curve" smooth="yes"/>
      <point x="100" y="232"/>
      <point x="120" y="253"/>
      <point x="120" y="277" type="curve" smooth="yes"/>
      <point x="120" y="301"/>
      <point x="100" y="322"/>
      <point x="75" y="322" type="curve" smooth="yes"/>
      <point x="50" y="322"/>
      <point x="30" y="301"/>
      <point x="30" y="277" type="curve" smooth="yes"/>
      <point x="30" y="253"/>
      <point x="50" y="232"/>
    </contour>
    <contour>
      <point x="126" y="356" type="curve" smooth="yes"/>
      <point x="151" y="356"/>
      <point x="171" y="376"/>
      <point x="171" y="401" type="curve" smooth="yes"/>
      <point x="171" y="425"/>
      <point x="151" y="446"/>
      <point x="126" y="446" type="curve" smooth="yes"/>
      <point x="101" y="446"/>
      <point x="81" y="425"/>
      <point x="81" y="401" type="curve" smooth="yes"/>
      <point x="81" y="376"/>
      <point x="101" y="356"/>
    </contour>
    <contour>
      <point x="225" y="11" type="curve" smooth="yes"/>
      <point x="250" y="11"/>
      <point x="270" y="32"/>
      <point x="270" y="56" type="curve" smooth="yes"/>
      <point x="270" y="81"/>
      <point x="250" y="101"/>
      <point x="225" y="101" type="curve" smooth="yes"/>
      <point x="200" y="101"/>
      <point x="180" y="81"/>
      <point x="180" y="56" type="curve" smooth="yes"/>
      <point x="180" y="32"/>
      <point x="200" y="11"/>
    </contour>
    <contour>
      <point x="225" y="453" type="curve" smooth="yes"/>
      <point x="250" y="453"/>
      <point x="270" y="473"/>
      <point x="270" y="498" type="curve" smooth="yes"/>
      <point x="270" y="522"/>
      <point x="250" y="543"/>
      <point x="225" y="543" type="curve" smooth="yes"/>
      <point x="200" y="543"/>
      <point x="180" y="522"/>
      <point x="180" y="498" type="curve" smooth="yes"/>
      <point x="180" y="473"/>
      <point x="200" y="453"/>
    </contour>
    <contour>
      <point x="357" y="-23" type="curve" smooth="yes"/>
      <point x="382" y="-23"/>
      <point x="402" y="-2"/>
      <point x="402" y="22" type="curve" smooth="yes"/>
      <point x="402" y="47"/>
      <point x="382" y="67"/>
      <point x="357" y="67" type="curve"/>
      <point x="332" y="67"/>
      <point x="312" y="47"/>
      <point x="312" y="22" type="curve" smooth="yes"/>
      <point x="312" y="-2"/>
      <point x="332" y="-23"/>
    </contour>
    <contour>
      <point x="357" y="487" type="curve"/>
      <point x="382" y="487"/>
      <point x="402" y="507"/>
      <point x="402" y="532" type="curve" smooth="yes"/>
      <point x="402" y="556"/>
      <point x="382" y="577"/>
      <point x="357" y="577" type="curve" smooth="yes"/>
      <point x="332" y="577"/>
      <point x="312" y="556"/>
      <point x="312" y="532" type="curve" smooth="yes"/>
      <point x="312" y="507"/>
      <point x="332" y="487"/>
    </contour>
    <contour>
      <point x="489" y="11" type="curve" smooth="yes"/>
      <point x="514" y="11"/>
      <point x="534" y="32"/>
      <point x="534" y="56" type="curve" smooth="yes"/>
      <point x="534" y="81"/>
      <point x="514" y="101"/>
      <point x="489" y="101" type="curve" smooth="yes"/>
      <point x="464" y="101"/>
      <point x="444" y="81"/>
      <point x="444" y="56" type="curve" smooth="yes"/>
      <point x="444" y="32"/>
      <point x="464" y="11"/>
    </contour>
    <contour>
      <point x="489" y="453" type="curve" smooth="yes"/>
      <point x="514" y="453"/>
      <point x="534" y="473"/>
      <point x="534" y="498" type="curve" smooth="yes"/>
      <point x="534" y="522"/>
      <point x="514" y="543"/>
      <point x="489" y="543" type="curve" smooth="yes"/>
      <point x="464" y="543"/>
      <point x="444" y="522"/>
      <point x="444" y="498" type="curve" smooth="yes"/>
      <point x="444" y="473"/>
      <point x="464" y="453"/>
    </contour>
    <contour>
      <point x="588" y="108" type="curve" smooth="yes"/>
      <point x="613" y="108"/>
      <point x="633" y="129"/>
      <point x="633" y="153" type="curve" smooth="yes"/>
      <point x="633" y="178"/>
      <point x="613" y="198"/>
      <point x="588" y="198" type="curve" smooth="yes"/>
      <point x="563" y="198"/>
      <point x="543" y="178"/>
      <point x="543" y="153" type="curve" smooth="yes"/>
      <point x="543" y="129"/>
      <point x="563" y="108"/>
    </contour>
    <contour>
      <point x="639" y="232" type="curve" smooth="yes"/>
      <point x="664" y="232"/>
      <point x="684" y="253"/>
      <point x="684" y="277" type="curve" smooth="yes"/>
      <point x="684" y="301"/>
      <point x="664" y="322"/>
      <point x="639" y="322" type="curve" smooth="yes"/>
      <point x="614" y="322"/>
      <point x="594" y="301"/>
      <point x="594" y="277" type="curve" smooth="yes"/>
      <point x="594" y="253"/>
      <point x="614" y="232"/>
    </contour>
    <contour>
      <point x="588" y="356" type="curve" smooth="yes"/>
      <point x="613" y="356"/>
      <point x="633" y="376"/>
      <point x="633" y="401" type="curve" smooth="yes"/>
      <point x="633" y="425"/>
      <point x="613" y="446"/>
      <point x="588" y="446" type="curve" smooth="yes"/>
      <point x="563" y="446"/>
      <point x="543" y="425"/>
      <point x="543" y="401" type="curve" smooth="yes"/>
      <point x="543" y="376"/>
      <point x="563" y="356"/>
    </contour>
    <contour>
      <point x="357.0" y="0.0" type="move" name="bottom"/>
    </contour>
    <contour>
      <point x="640.0" y="0.0" type="move" name="bottomright"/>
    </contour>
    <contour>
      <point x="357.0" y="600.0" type="move" name="top"/>
    </contour>
    <contour>
      <point x="640.0" y="600.0" type="move" name="topright"/>
    </contour>
  </outline>
</glyph>
<glyph name="reversedKhomut-thai" format="1">
  <advance width="1458"/>
  <unicode hex="EC00"/>
  <outline>
    <contour>
      <point x="1118" y="-12" type="curve" smooth="yes" name="hr00"/>
      <point x="1298" y="-12"/>
      <point x="1409" y="86"/>
      <point x="1409" y="277" type="curve" smooth="yes"/>
      <point x="1409" y="468"/>
      <point x="1296" y="566"/>
      <point x="1144" y="566" type="curve" smooth="yes"/>
      <point x="1044" y="566"/>
      <point x="977" y="526"/>
      <point x="944" y="481" type="curve"/>
      <point x="1025" y="395" type="line"/>
      <point x="1045" y="423"/>
      <point x="1079" y="449"/>
      <point x="1134" y="449" type="curve" smooth="yes"/>
      <point x="1205" y="449"/>
      <point x="1255" y="402"/>
      <point x="1255" y="318" type="curve" smooth="yes"/>
      <point x="1255" y="236" type="line" smooth="yes"/>
      <point x="1255" y="152"/>
      <point x="1206" y="105"/>
      <point x="1113" y="105" type="curve" smooth="yes"/>
      <point x="982" y="105"/>
      <point x="890" y="176"/>
      <point x="866" y="502" type="curve"/>
      <point x="722" y="502" type="line"/>
      <point x="645" y="258" type="line"/>
      <point x="642" y="258" type="line"/>
      <point x="579" y="459" type="line"/>
      <point x="467" y="459" type="line"/>
      <point x="414" y="290" type="line"/>
      <point x="411" y="290" type="line"/>
      <point x="367" y="430" type="line"/>
      <point x="255" y="430" type="line"/>
      <point x="247" y="355"/>
      <point x="216" y="290"/>
      <point x="117" y="290" type="curve" smooth="yes"/>
      <point x="49" y="290" type="line"/>
      <point x="49" y="167" type="line"/>
      <point x="122" y="167" type="line" smooth="yes"/>
      <point x="211" y="167"/>
      <point x="257" y="192"/>
      <point x="300" y="271" type="curve"/>
      <point x="303" y="271" type="line"/>
      <point x="356" y="103" type="line"/>
      <point x="469" y="103" type="line"/>
      <point x="522" y="271" type="line"/>
      <point x="525" y="271" type="line"/>
      <point x="588" y="71" type="line"/>
      <point x="700" y="71" type="line"/>
      <point x="776" y="312" type="line"/>
      <point x="779" y="312" type="line"/>
      <point x="829" y="41"/>
      <point x="965" y="-12"/>
    </contour>
  </outline>
</glyph>
<glyph name="paiyannoi_wisanchani-thai" format="1">
  <advance width="633"/>
  <unicode hex="EC02"/>
  <outline>
    <contour>
      <point x="379" y="0" type="line" name="hr00"/>
      <point x="527" y="0" type="line"/>
      <point x="527" y="150" type="line"/>
      <point x="591" y="150" type="line"/>
      <point x="591" y="250" type="line"/>
      <point x="527" y="250" type="line"/>
      <point x="527" y="554" type="line"/>
      <point x="379" y="554" type="line"/>
      <point x="379" y="526" type="line" smooth="yes"/>
      <point x="379" y="465"/>
      <point x="324" y="449"/>
      <point x="275" y="449" type="curve" smooth="yes"/>
      <point x="262" y="449" type="line" smooth="yes"/>
      <point x="195" y="449"/>
      <point x="177" y="485"/>
      <point x="177" y="526" type="curve" smooth="yes"/>
      <point x="177" y="554" type="line"/>
      <point x="29" y="554" type="line"/>
      <point x="29" y="502" type="line" smooth="yes"/>
      <point x="29" y="397"/>
      <point x="102" y="347"/>
      <point x="211" y="347" type="curve" smooth="yes"/>
      <point x="304" y="347"/>
      <point x="350" y="382"/>
      <point x="374" y="440" type="curve"/>
      <point x="379" y="440" type="line"/>
      <point x="379" y="250" type="line"/>
      <point x="295" y="250" type="line"/>
      <point x="295" y="302" type="line"/>
      <point x="181" y="302" type="line"/>
      <point x="181" y="240" type="line" smooth="yes"/>
      <point x="181" y="180"/>
      <point x="215" y="150"/>
      <point x="286" y="150" type="curve" smooth="yes"/>
      <point x="379" y="150" type="line"/>
    </contour>
  </outline>
</glyph>
<glyph name="angkhankhu_wisanchani-thai" format="1">
  <advance width="870"/>
  <unicode hex="EC03"/>
  <outline>
    <contour>
      <point x="379" y="0" type="line" name="hr00"/>
      <point x="527" y="0" type="line"/>
      <point x="527" y="150" type="line"/>
      <point x="616" y="150" type="line"/>
      <point x="616" y="0" type="line"/>
      <point x="764" y="0" type="line"/>
      <point x="764" y="150" type="line"/>
      <point x="828" y="150" type="line"/>
      <point x="828" y="250" type="line"/>
      <point x="764" y="250" type="line"/>
      <point x="764" y="554" type="line"/>
      <point x="616" y="554" type="line"/>
      <point x="616" y="250" type="line"/>
      <point x="527" y="250" type="line"/>
      <point x="527" y="554" type="line"/>
      <point x="379" y="554" type="line"/>
      <point x="379" y="526" type="line" smooth="yes"/>
      <point x="379" y="465"/>
      <point x="324" y="449"/>
      <point x="275" y="449" type="curve" smooth="yes"/>
      <point x="262" y="449" type="line" smooth="yes"/>
      <point x="195" y="449"/>
      <point x="177" y="485"/>
      <point x="177" y="526" type="curve" smooth="yes"/>
      <point x="177" y="554" type="line"/>
      <point x="29" y="554" type="line"/>
      <point x="29" y="502" type="line" smooth="yes"/>
      <point x="29" y="397"/>
      <point x="102" y="347"/>
      <point x="211" y="347" type="curve" smooth="yes"/>
      <point x="304" y="347"/>
      <point x="349" y="381"/>
      <point x="374" y="440" type="curve"/>
      <point x="379" y="440" type="line"/>
      <point x="379" y="250" type="line"/>
      <point x="295" y="250" type="line"/>
      <point x="295" y="302" type="line"/>
      <point x="181" y="302" type="line"/>
      <point x="181" y="240" type="line" smooth="yes"/>
      <point x="181" y="180"/>
      <point x="215" y="150"/>
      <point x="286" y="150" type="curve" smooth="yes"/>
      <point x="379" y="150" type="line"/>
    </contour>
  </outline>
</glyph>
<glyph name="pikKaa-thai" format="1">
  <advance width="617"/>
  <unicode hex="EC05"/>
  <outline>
    <contour>
      <point x="245" y="-503" type="line" name="hr00"/>
      <point x="373" y="-371" type="line" smooth="yes"/>
      <point x="415" y="-328"/>
      <point x="417" y="-302"/>
      <point x="417" y="-247" type="curve" smooth="yes"/>
      <point x="417" y="923" type="line" smooth="yes"/>
      <point x="417" y="1016"/>
      <point x="371" y="1067"/>
      <point x="270" y="1067" type="curve" smooth="yes"/>
      <point x="130" y="1067" type="line"/>
      <point x="130" y="952" type="line"/>
      <point x="269" y="952" type="line"/>
      <point x="269" y="-265" type="line"/>
      <point x="142" y="-394" type="line"/>
    </contour>
  </outline>
</glyph>
<glyph name="fonthong-thai" format="1">
  <advance width="0"/>
  <unicode hex="EC07"/>
  <outline>
    <contour>
      <point x="-164" y="639" type="line" name="hr00"/>
      <point x="-30" y="639" type="line"/>
      <point x="-30" y="846" type="line"/>
      <point x="-164" y="846" type="line"/>
    </contour>
    <contour>
      <point x="-97.0" y="558.0" type="move" name="_top"/>
    </contour>
    <contour>
      <point x="-24.0" y="863.0" type="move" name="topright"/>
    </contour>
  </outline>
</glyph>
<glyph name="fongdan-thai" format="1">
  <advance width="666"/>
  <unicode hex="EC0A"/>
  <outline>
    <contour>
      <point x="333" y="105" type="curve" smooth="yes" name="hr00"/>
      <point x="254" y="105"/>
      <point x="206" y="158"/>
      <point x="206" y="249" type="curve" smooth="yes"/>
      <point x="206" y="305" type="line" smooth="yes"/>
      <point x="206" y="396"/>
      <point x="254" y="449"/>
      <point x="333" y="449" type="curve" smooth="yes"/>
      <point x="412" y="449"/>
      <point x="460" y="396"/>
      <point x="460" y="305" type="curve" smooth="yes"/>
      <point x="460" y="249" type="line" smooth="yes"/>
      <point x="460" y="158"/>
      <point x="412" y="105"/>
    </contour>
    <contour>
      <point x="166" y="639" type="line"/>
      <point x="300" y="639" type="line"/>
      <point x="300" y="846" type="line"/>
      <point x="166" y="846" type="line"/>
    </contour>
    <contour>
      <point x="333" y="-12" type="curve" smooth="yes"/>
      <point x="508" y="-12"/>
      <point x="617" y="98"/>
      <point x="617" y="277" type="curve" smooth="yes"/>
      <point x="617" y="456"/>
      <point x="508" y="566"/>
      <point x="333" y="566" type="curve" smooth="yes"/>
      <point x="158" y="566"/>
      <point x="49" y="456"/>
      <point x="49" y="277" type="curve" smooth="yes"/>
      <point x="49" y="98"/>
      <point x="158" y="-12"/>
    </contour>
    <contour>
      <point x="366" y="639" type="line"/>
      <point x="500" y="639" type="line"/>
      <point x="500" y="846" type="line"/>
      <point x="366" y="846" type="line"/>
    </contour>
  </outline>
</glyph>
<glyph name="danda-thai" format="1">
  <advance width="286"/>
  <unicode hex="EC11"/>
  <outline>
    <contour>
      <point x="69" y="0" type="line" name="hr00"/>
      <point x="217" y="0" type="line"/>
      <point x="217" y="554" type="line"/>
      <point x="69" y="554" type="line"/>
    </contour>
  </outline>
</glyph>
<glyph name="eight-thai.sups" format="1">
  <advance width="476"/>
  <outline>
    <contour>
      <point x="153" y="311" type="curve" smooth="yes" name="hr00"/>
      <point x="198" y="311"/>
      <point x="228" y="327"/>
      <point x="239" y="368" type="curve"/>
      <point x="245" y="368" type="line"/>
      <point x="256" y="329"/>
      <point x="285" y="311"/>
      <point x="334" y="311" type="curve" smooth="yes"/>
      <point x="409" y="311"/>
      <point x="458" y="359"/>
      <point x="458" y="451" type="curve" smooth="yes"/>
      <point x="458" y="529"/>
      <point x="410" y="568"/>
      <point x="346" y="568" type="curve" smooth="yes"/>
      <point x="336" y="568"/>
      <point x="316" y="567"/>
      <point x="304" y="563" type="curve"/>
      <point x="312" y="483" type="line"/>
      <point x="318" y="484"/>
      <point x="321" y="484"/>
      <point x="324" y="484" type="curve" smooth="yes"/>
      <point x="340" y="484"/>
      <point x="343" y="476"/>
      <point x="343" y="467" type="curve" smooth="yes"/>
      <point x="343" y="432" type="line" smooth="yes"/>
      <point x="343" y="418"/>
      <point x="335" y="408"/>
      <point x="318" y="408" type="curve" smooth="yes"/>
      <point x="293" y="408"/>
      <point x="289" y="424"/>
      <point x="289" y="457" type="curve" smooth="yes"/>
      <point x="289" y="471" type="line"/>
      <point x="203" y="471" type="line"/>
      <point x="203" y="457" type="line" smooth="yes"/>
      <point x="203" y="424"/>
      <point x="198" y="409"/>
      <point x="176" y="409" type="curve" smooth="yes"/>
      <point x="154" y="409"/>
      <point x="149" y="425"/>
      <point x="149" y="460" type="curve" smooth="yes"/>
      <point x="149" y="511" type="line" smooth="yes"/>
      <point x="149" y="580"/>
      <point x="175" y="598"/>
      <point x="215" y="604" type="curve" smooth="yes"/>
      <point x="343" y="622" type="line" smooth="yes"/>
      <point x="422" y="633"/>
      <point x="438" y="660"/>
      <point x="445" y="709" type="curve" smooth="yes"/>
      <point x="454" y="781" type="line"/>
      <point x="343" y="781" type="line"/>
      <point x="335" y="731" type="line" smooth="yes"/>
      <point x="331" y="708"/>
      <point x="319" y="703"/>
      <point x="291" y="699" type="curve" smooth="yes"/>
      <point x="165" y="680" type="line" smooth="yes"/>
      <point x="99" y="670"/>
      <point x="22" y="631"/>
      <point x="22" y="491" type="curve" smooth="yes"/>
      <point x="22" y="366"/>
      <point x="74" y="311"/>
    </contour>
  </outline>
</glyph>
<glyph name="five-thai.sups" format="1">
  <advance width="419"/>
  <outline>
    <contour>
      <point x="236" y="320" type="curve" name="hr00"/>
      <point x="390" y="320" type="line"/>
      <point x="390" y="419" type="line"/>
      <point x="365" y="419"/>
      <point x="349" y="449"/>
      <point x="349" y="475" type="curve" smooth="yes"/>
      <point x="349" y="491" type="line"/>
      <point x="386" y="491" type="line"/>
      <point x="386" y="588" type="line"/>
      <point x="347" y="588" type="line" smooth="yes"/>
      <point x="267" y="588"/>
      <point x="226" y="554"/>
      <point x="226" y="503" type="curve" smooth="yes"/>
      <point x="226" y="453"/>
      <point x="268" y="434"/>
      <point x="314" y="423" type="curve"/>
      <point x="314" y="419" type="line"/>
      <point x="236" y="419" type="line" smooth="yes"/>
      <point x="163" y="419"/>
      <point x="149" y="450"/>
      <point x="149" y="484" type="curve" smooth="yes"/>
      <point x="149" y="524" type="line" smooth="yes"/>
      <point x="149" y="578"/>
      <point x="174" y="592"/>
      <point x="215" y="603" type="curve" smooth="yes"/>
      <point x="279" y="621" type="line" smooth="yes"/>
      <point x="361" y="644"/>
      <point x="374" y="668"/>
      <point x="380" y="709" type="curve" smooth="yes"/>
      <point x="390" y="781" type="line"/>
      <point x="284" y="781" type="line"/>
      <point x="276" y="731" type="line" smooth="yes"/>
      <point x="273" y="714"/>
      <point x="264" y="705"/>
      <point x="249" y="698" type="curve"/>
      <point x="250" y="702"/>
      <point x="250" y="707"/>
      <point x="250" y="711" type="curve" smooth="yes"/>
      <point x="250" y="767"/>
      <point x="215" y="802"/>
      <point x="160" y="802" type="curve" smooth="yes"/>
      <point x="99" y="802"/>
      <point x="59" y="767"/>
      <point x="59" y="711" type="curve" smooth="yes"/>
      <point x="59" y="681"/>
      <point x="72" y="659"/>
      <point x="94" y="645" type="curve"/>
      <point x="56" y="624"/>
      <point x="22" y="586"/>
      <point x="22" y="510" type="curve" smooth="yes"/>
      <point x="22" y="392"/>
      <point x="96" y="320"/>
    </contour>
    <contour>
      <point x="156" y="675" type="curve" smooth="yes"/>
      <point x="127" y="675"/>
      <point x="117" y="689"/>
      <point x="117" y="710" type="curve" smooth="yes"/>
      <point x="117" y="714" type="line" smooth="yes"/>
      <point x="117" y="735"/>
      <point x="127" y="749"/>
      <point x="156" y="749" type="curve" smooth="yes"/>
      <point x="185" y="749"/>
      <point x="195" y="735"/>
      <point x="195" y="714" type="curve" smooth="yes"/>
      <point x="195" y="710" type="line" smooth="yes"/>
      <point x="195" y="689"/>
      <point x="185" y="675"/>
    </contour>
  </outline>
</glyph>
<glyph name="four-thai.sups" format="1">
  <advance width="419"/>
  <outline>
    <contour>
      <point x="236" y="320" type="curve" name="hr00"/>
      <point x="390" y="320" type="line"/>
      <point x="390" y="419" type="line"/>
      <point x="365" y="419"/>
      <point x="349" y="449"/>
      <point x="349" y="475" type="curve" smooth="yes"/>
      <point x="349" y="491" type="line"/>
      <point x="386" y="491" type="line"/>
      <point x="386" y="588" type="line"/>
      <point x="347" y="588" type="line" smooth="yes"/>
      <point x="267" y="588"/>
      <point x="226" y="554"/>
      <point x="226" y="503" type="curve" smooth="yes"/>
      <point x="226" y="453"/>
      <point x="268" y="434"/>
      <point x="314" y="423" type="curve"/>
      <point x="314" y="419" type="line"/>
      <point x="236" y="419" type="line" smooth="yes"/>
      <point x="163" y="419"/>
      <point x="149" y="450"/>
      <point x="149" y="484" type="curve" smooth="yes"/>
      <point x="149" y="524" type="line" smooth="yes"/>
      <point x="149" y="578"/>
      <point x="174" y="592"/>
      <point x="215" y="603" type="curve" smooth="yes"/>
      <point x="279" y="621" type="line" smooth="yes"/>
      <point x="361" y="644"/>
      <point x="374" y="668"/>
      <point x="380" y="709" type="curve" smooth="yes"/>
      <point x="390" y="781" type="line"/>
      <point x="279" y="781" type="line"/>
      <point x="270" y="731" type="line" smooth="yes"/>
      <point x="266" y="708"/>
      <point x="252" y="706"/>
      <point x="227" y="698" type="curve" smooth="yes"/>
      <point x="165" y="679" type="line" smooth="yes"/>
      <point x="115" y="664"/>
      <point x="22" y="636"/>
      <point x="22" y="510" type="curve" smooth="yes"/>
      <point x="22" y="392"/>
      <point x="96" y="320"/>
    </contour>
  </outline>
</glyph>
<glyph name="loChula-thai.short" format="1">
  <advance width="681"/>
  <outline>
    <contour>
      <point x="69" y="0" type="line" name="hr00"/>
      <point x="212" y="0" type="line"/>
      <point x="340" y="157" type="line"/>
      <point x="467" y="0" type="line"/>
      <point x="611" y="0" type="line"/>
      <point x="611" y="276" type="line" smooth="yes"/>
      <point x="611" y="335"/>
      <point x="589" y="373"/>
      <point x="531" y="390" type="curve"/>
      <point x="531" y="397" type="line"/>
      <point x="592" y="408"/>
      <point x="622" y="444"/>
      <point x="622" y="502" type="curve" smooth="yes"/>
      <point x="622" y="566" type="line"/>
      <point x="476" y="566" type="line"/>
      <point x="476" y="485" type="line" smooth="yes"/>
      <point x="476" y="447"/>
      <point x="457" y="436"/>
      <point x="427" y="436" type="curve" smooth="yes"/>
      <point x="382" y="436" type="line"/>
      <point x="382" y="325" type="line"/>
      <point x="416" y="325" type="line" smooth="yes"/>
      <point x="455" y="325"/>
      <point x="465" y="307"/>
      <point x="465" y="278" type="curve" smooth="yes"/>
      <point x="465" y="249" type="line"/>
      <point x="470" y="154" type="line"/>
      <point x="464" y="154" type="line"/>
      <point x="380" y="263" type="line"/>
      <point x="299" y="263" type="line"/>
      <point x="215" y="154" type="line"/>
      <point x="209" y="154" type="line"/>
      <point x="215" y="290" type="line"/>
      <point x="215" y="554" type="line"/>
      <point x="69" y="554" type="line"/>
    </contour>
    <contour>
      <point x="611.0" y="0.0" type="move" name="bottomright"/>
    </contour>
    <contour>
      <point x="344.0" y="558.0" type="move" name="top"/>
    </contour>
    <contour>
      <point x="611.0" y="600.0" type="move" name="topright"/>
    </contour>
  </outline>
</glyph>
<glyph name="lu_lakkhangyao-thai" format="1">
  <advance width="966"/>
  <outline>
    <contour>
      <point x="421" y="-200" type="line" name="hr00"/>
      <point x="569" y="-200" type="line"/>
      <point x="569" y="332" type="line" smooth="yes"/>
      <point x="569" y="352"/>
      <point x="567" y="371"/>
      <point x="563" y="389" type="curve"/>
      <point x="585" y="421"/>
      <point x="616" y="450"/>
      <point x="672" y="450" type="curve" smooth="yes"/>
      <point x="731" y="450"/>
      <point x="755" y="418"/>
      <point x="755" y="367" type="curve" smooth="yes"/>
      <point x="755" y="-200" type="line"/>
      <point x="903" y="-200" type="line"/>
      <point x="903" y="374" type="line" smooth="yes"/>
      <point x="903" y="498"/>
      <point x="828" y="566"/>
      <point x="683" y="566" type="curve" smooth="yes"/>
      <point x="596" y="566"/>
      <point x="541" y="542"/>
      <point x="501" y="500" type="curve"/>
      <point x="457" y="541"/>
      <point x="392" y="566"/>
      <point x="307" y="566" type="curve" smooth="yes"/>
      <point x="159" y="566"/>
      <point x="55" y="473"/>
      <point x="43" y="326" type="curve"/>
      <point x="130" y="291" type="line"/>
      <point x="130" y="115" type="line"/>
      <point x="81" y="115" type="line"/>
      <point x="81" y="0" type="line"/>
      <point x="131" y="0" type="line" smooth="yes"/>
      <point x="232" y="0"/>
      <point x="278" y="51"/>
      <point x="278" y="144" type="curve" smooth="yes"/>
      <point x="278" y="280" type="line" smooth="yes"/>
      <point x="278" y="328"/>
      <point x="264" y="347"/>
      <point x="216" y="366" type="curve" smooth="yes"/>
      <point x="180" y="380" type="line"/>
      <point x="199" y="419"/>
      <point x="243" y="449"/>
      <point x="303" y="449" type="curve" smooth="yes"/>
      <point x="387" y="449"/>
      <point x="421" y="400"/>
      <point x="421" y="313" type="curve" smooth="yes"/>
    </contour>
    <contour>
      <point x="494.0" y="558.0" type="move" name="top"/>
    </contour>
  </outline>
</glyph>
<glyph name="maiEk-thai.narrow" format="1">
  <advance width="0"/>
  <outline>
    <contour>
      <point x="-199" y="639" type="line" name="hr00"/>
      <point x="-65" y="639" type="line"/>
      <point x="-65" y="846" type="line"/>
      <point x="-199" y="846" type="line"/>
    </contour>
    <contour>
      <point x="0.0" y="600.0" type="move" name="_topright"/>
    </contour>
    <contour>
      <point x="-59.0" y="863.0" type="move" name="topright"/>
    </contour>
  </outline>
</glyph>
<glyph name="maiEk-thai.small" format="1">
  <advance width="0"/>
  <outline>
    <contour>
      <point x="-124" y="878" type="line" name="hr00"/>
      <point x="0" y="878" type="line"/>
      <point x="0" y="1038" type="line"/>
      <point x="-124" y="1038" type="line"/>
    </contour>
    <contour>
      <point x="0.0" y="800.0" type="move" name="_topright"/>
    </contour>
  </outline>
</glyph>
<glyph name="maiHanaKat-thai.narrow" format="1">
  <advance width="0"/>
  <outline>
    <contour>
      <point x="-251" y="639" type="curve" smooth="yes" name="hr00"/>
      <point x="-65" y="639" type="line"/>
      <point x="-65" y="747" type="line"/>
      <point x="-255" y="747" type="line"/>
      <point x="-255" y="835" type="line"/>
      <point x="-378" y="835" type="line"/>
      <point x="-378" y="753" type="line" smooth="yes"/>
      <point x="-378" y="679"/>
      <point x="-330" y="639"/>
    </contour>
    <contour>
      <point x="0.0" y="600.0" type="move" name="_topright"/>
    </contour>
    <contour>
      <point x="-65.0" y="800.0" type="move" name="topright"/>
    </contour>
  </outline>
</glyph>
<glyph name="maiHanaKat_maiTri-thai" format="1">
  <advance width="0"/>
  <outline>
    <contour>
      <point x="-265" y="878" type="line" name="hr00"/>
      <point x="-165" y="878" type="line"/>
      <point x="-165" y="960" type="line" smooth="yes"/>
      <point x="-165" y="981"/>
      <point x="-155" y="994"/>
      <point x="-133" y="994" type="curve" smooth="yes"/>
      <point x="-115" y="994"/>
      <point x="-103" y="984"/>
      <point x="-103" y="956" type="curve" smooth="yes"/>
      <point x="-103" y="923" type="line"/>
      <point x="-26" y="923" type="line"/>
      <point x="-26" y="956" type="line" smooth="yes"/>
      <point x="-26" y="984"/>
      <point x="-14" y="994"/>
      <point x="4" y="994" type="curve" smooth="yes"/>
      <point x="26" y="994"/>
      <point x="36" y="981"/>
      <point x="36" y="960" type="curve" smooth="yes"/>
      <point x="36" y="878" type="line"/>
      <point x="206" y="878" type="line"/>
      <point x="206" y="963" type="line"/>
      <point x="135" y="963" type="line"/>
      <point x="135" y="974" type="line" smooth="yes"/>
      <point x="135" y="1037"/>
      <point x="99" y="1080"/>
      <point x="33" y="1080" type="curve" smooth="yes"/>
      <point x="-14" y="1080"/>
      <point x="-52" y="1057"/>
      <point x="-61" y="1009" type="curve"/>
      <point x="-67" y="1009" type="line"/>
      <point x="-78" y="1059"/>
      <point x="-119" y="1080"/>
      <point x="-162" y="1080" type="curve" smooth="yes"/>
      <point x="-229" y="1080"/>
      <point x="-265" y="1037"/>
      <point x="-265" y="974" type="curve" smooth="yes"/>
    </contour>
    <contour>
      <point x="-138" y="639" type="curve" smooth="yes"/>
      <point x="120" y="639" type="line"/>
      <point x="120" y="747" type="line"/>
      <point x="-148" y="747" type="line"/>
      <point x="-148" y="835" type="line"/>
      <point x="-265" y="835" type="line"/>
      <point x="-265" y="753" type="line" smooth="yes"/>
      <point x="-265" y="679"/>
      <point x="-220" y="639"/>
    </contour>
    <contour>
      <point x="0.0" y="600.0" type="move" name="_topright"/>
    </contour>
  </outline>
</glyph>
<glyph name="maiHanaKat_maitaikhu-thai" format="1">
  <advance width="0"/>
  <outline>
    <contour>
      <point x="-300" y="866" type="curve" smooth="yes" name="hr00"/>
      <point x="-257" y="866"/>
      <point x="-219" y="881"/>
      <point x="-204" y="928" type="curve"/>
      <point x="-200" y="928" type="line"/>
      <point x="-185" y="879"/>
      <point x="-140" y="866"/>
      <point x="-106" y="866" type="curve" smooth="yes"/>
      <point x="-39" y="866"/>
      <point x="3" y="905"/>
      <point x="3" y="976" type="curve" smooth="yes"/>
      <point x="3" y="1012" type="line"/>
      <point x="-99" y="1012" type="line"/>
      <point x="-99" y="985" type="line" smooth="yes"/>
      <point x="-99" y="959"/>
      <point x="-111" y="946"/>
      <point x="-130" y="946" type="curve" smooth="yes"/>
      <point x="-156" y="946"/>
      <point x="-163" y="974"/>
      <point x="-165" y="996" type="curve"/>
      <point x="-241" y="996" type="line"/>
      <point x="-241" y="975"/>
      <point x="-246" y="946"/>
      <point x="-274" y="946" type="curve" smooth="yes"/>
      <point x="-294" y="946"/>
      <point x="-306" y="961"/>
      <point x="-306" y="987" type="curve" smooth="yes"/>
      <point x="-306" y="1014"/>
      <point x="-293" y="1033"/>
      <point x="-269" y="1033" type="curve" smooth="yes"/>
      <point x="3" y="1033" type="line"/>
      <point x="3" y="1116" type="line"/>
      <point x="-272" y="1116" type="line" smooth="yes"/>
      <point x="-357" y="1116"/>
      <point x="-408" y="1062"/>
      <point x="-408" y="984" type="curve" smooth="yes"/>
      <point x="-408" y="911"/>
      <point x="-363" y="866"/>
    </contour>
    <contour>
      <point x="-258" y="639" type="curve" smooth="yes"/>
      <point x="0" y="639" type="line"/>
      <point x="0" y="747" type="line"/>
      <point x="-268" y="747" type="line"/>
      <point x="-268" y="835" type="line"/>
      <point x="-385" y="835" type="line"/>
      <point x="-385" y="753" type="line" smooth="yes"/>
      <point x="-385" y="679"/>
      <point x="-340" y="639"/>
    </contour>
    <contour>
      <point x="0.0" y="600.0" type="move" name="_topright"/>
    </contour>
  </outline>
</glyph>
<glyph name="maiTho-thai.narrow" format="1">
  <advance width="0"/>
  <outline>
    <contour>
      <point x="-378" y="645" type="line" name="hr00"/>
      <point x="-65" y="645" type="line"/>
      <point x="-65" y="747" type="line"/>
      <point x="-250" y="747" type="line"/>
      <point x="-250" y="755" type="line"/>
      <point x="-214" y="771"/>
      <point x="-192" y="802"/>
      <point x="-192" y="836" type="curve" smooth="yes"/>
      <point x="-192" y="884"/>
      <point x="-230" y="915"/>
      <point x="-296" y="915" type="curve" smooth="yes"/>
      <point x="-378" y="915" type="line"/>
      <point x="-378" y="813" type="line"/>
      <point x="-353" y="813" type="line" smooth="yes"/>
      <point x="-323" y="813"/>
      <point x="-315" y="803"/>
      <point x="-315" y="781" type="curve" smooth="yes"/>
      <point x="-315" y="747" type="line"/>
      <point x="-378" y="747" type="line"/>
    </contour>
    <contour>
      <point x="0.0" y="600.0" type="move" name="_topright"/>
    </contour>
  </outline>
</glyph>
<glyph name="maiTho-thai.small" format="1">
  <advance width="0"/>
  <outline>
    <contour>
      <point x="-206" y="878" type="line" name="hr00"/>
      <point x="66" y="878" type="line"/>
      <point x="66" y="963" type="line"/>
      <point x="-90" y="963" type="line"/>
      <point x="-90" y="970" type="line"/>
      <point x="-62" y="983"/>
      <point x="-43" y="1012"/>
      <point x="-43" y="1040" type="curve" smooth="yes"/>
      <point x="-43" y="1082"/>
      <point x="-75" y="1108"/>
      <point x="-130" y="1108" type="curve" smooth="yes"/>
      <point x="-206" y="1108" type="line"/>
      <point x="-206" y="1024" type="line"/>
      <point x="-179" y="1024" type="line" smooth="yes"/>
      <point x="-155" y="1024"/>
      <point x="-148" y="1016"/>
      <point x="-148" y="997" type="curve" smooth="yes"/>
      <point x="-148" y="963" type="line"/>
      <point x="-206" y="963" type="line"/>
    </contour>
    <contour>
      <point x="0.0" y="800.0" type="move" name="_topright"/>
    </contour>
  </outline>
</glyph>
<glyph name="maitaikhu-thai.narrow" format="1">
  <advance width="0"/>
  <outline>
    <contour>
      <point x="-343" y="626" type="curve" smooth="yes" name="hr00"/>
      <point x="-307" y="626"/>
      <point x="-268" y="642"/>
      <point x="-254" y="691" type="curve"/>
      <point x="-249" y="691" type="line"/>
      <point x="-236" y="640"/>
      <point x="-188" y="626"/>
      <point x="-160" y="626" type="curve" smooth="yes"/>
      <point x="-95" y="626"/>
      <point x="-55" y="667"/>
      <point x="-55" y="741" type="curve" smooth="yes"/>
      <point x="-55" y="779" type="line"/>
      <point x="-161" y="779" type="line"/>
      <point x="-161" y="751" type="line" smooth="yes"/>
      <point x="-161" y="724"/>
      <point x="-173" y="710"/>
      <point x="-191" y="710" type="curve" smooth="yes"/>
      <point x="-213" y="710"/>
      <point x="-222" y="731"/>
      <point x="-223" y="762" type="curve"/>
      <point x="-280" y="762" type="line"/>
      <point x="-279" y="733"/>
      <point x="-286" y="710"/>
      <point x="-312" y="710" type="curve" smooth="yes"/>
      <point x="-335" y="710"/>
      <point x="-344" y="734"/>
      <point x="-344" y="753" type="curve" smooth="yes"/>
      <point x="-344" y="788"/>
      <point x="-325" y="801"/>
      <point x="-298" y="801" type="curve" smooth="yes"/>
      <point x="-55" y="801" type="line"/>
      <point x="-55" y="888" type="line"/>
      <point x="-302" y="888" type="line" smooth="yes"/>
      <point x="-394" y="888"/>
      <point x="-450" y="844"/>
      <point x="-450" y="752" type="curve" smooth="yes"/>
      <point x="-450" y="675"/>
      <point x="-406" y="626"/>
    </contour>
    <contour>
      <point x="0.0" y="600.0" type="move" name="_topright"/>
    </contour>
    <contour>
      <point x="-55.0" y="834.0" type="move" name="topright"/>
    </contour>
  </outline>
</glyph>
<glyph name="maitaikhu-thai.small" format="1">
  <advance width="0"/>
  <outline>
    <contour>
      <point x="-303" y="866" type="curve" smooth="yes" name="hr00"/>
      <point x="-260" y="866"/>
      <point x="-222" y="881"/>
      <point x="-207" y="928" type="curve"/>
      <point x="-203" y="928" type="line"/>
      <point x="-188" y="879"/>
      <point x="-143" y="866"/>
      <point x="-109" y="866" type="curve" smooth="yes"/>
      <point x="-42" y="866"/>
      <point x="0" y="905"/>
      <point x="0" y="976" type="curve" smooth="yes"/>
      <point x="0" y="1012" type="line"/>
      <point x="-102" y="1012" type="line"/>
      <point x="-102" y="985" type="line" smooth="yes"/>
      <point x="-102" y="959"/>
      <point x="-117" y="946"/>
      <point x="-133" y="946" type="curve" smooth="yes"/>
      <point x="-159" y="946"/>
      <point x="-166" y="974"/>
      <point x="-168" y="996" type="curve"/>
      <point x="-244" y="996" type="line"/>
      <point x="-244" y="975"/>
      <point x="-249" y="946"/>
      <point x="-277" y="946" type="curve" smooth="yes"/>
      <point x="-297" y="946"/>
      <point x="-309" y="961"/>
      <point x="-309" y="987" type="curve" smooth="yes"/>
      <point x="-309" y="1014"/>
      <point x="-296" y="1033"/>
      <point x="-272" y="1033" type="curve" smooth="yes"/>
      <point x="0" y="1033" type="line"/>
      <point x="0" y="1116" type="line"/>
      <point x="-275" y="1116" type="line" smooth="yes"/>
      <point x="-360" y="1116"/>
      <point x="-411" y="1062"/>
      <point x="-411" y="984" type="curve" smooth="yes"/>
      <point x="-411" y="911"/>
      <point x="-366" y="866"/>
    </contour>
    <contour>
      <point x="0.0" y="800.0" type="move" name="_topright"/>
    </contour>
  </outline>
</glyph>
<glyph name="moMa-thai_macronbelowcomb" format="1">
  <advance width="623"/>
  <outline>
    <contour>
      <point x="382" y="-12" type="curve" smooth="yes" name="hr00"/>
      <point x="498" y="-12"/>
      <point x="560" y="67"/>
      <point x="560" y="206" type="curve" smooth="yes"/>
      <point x="560" y="554" type="line"/>
      <point x="412" y="554" type="line"/>
      <point x="412" y="219" type="line" smooth="yes"/>
      <point x="412" y="161"/>
      <point x="395" y="108"/>
      <point x="319" y="108" type="curve" smooth="yes"/>
      <point x="270" y="108"/>
      <point x="217" y="138"/>
      <point x="217" y="194" type="curve" smooth="yes"/>
      <point x="217" y="554" type="line"/>
      <point x="69" y="554" type="line"/>
      <point x="69" y="0" type="line"/>
      <point x="217" y="0" type="line"/>
      <point x="217" y="93" type="line"/>
      <point x="222" y="93" type="line"/>
      <point x="241" y="39"/>
      <point x="287" y="-12"/>
    </contour>
    <contour>
      <point x="69" y="-207" type="line"/>
      <point x="560" y="-207" type="line"/>
      <point x="560" y="-104" type="line"/>
      <point x="69" y="-104" type="line"/>
    </contour>
    <contour>
      <point x="560.0" y="-167.0" type="move" name="bottomright"/>
    </contour>
    <contour>
      <point x="315.0" y="558.0" type="move" name="top"/>
    </contour>
    <contour>
      <point x="560.0" y="600.0" type="move" name="topright"/>
    </contour>
  </outline>
</glyph>
<glyph name="ngoNgu-thai_macronbelowcomb" format="1">
  <advance width="550"/>
  <outline>
    <contour>
      <point x="185" y="0" type="line" name="hr00"/>
      <point x="282" y="0" type="line" smooth="yes"/>
      <point x="424" y="0"/>
      <point x="510" y="104"/>
      <point x="510" y="277" type="curve" smooth="yes"/>
      <point x="510" y="450"/>
      <point x="423" y="554"/>
      <point x="280" y="554" type="curve" smooth="yes"/>
      <point x="240" y="554" type="line"/>
      <point x="240" y="437" type="line"/>
      <point x="277" y="437" type="line" smooth="yes"/>
      <point x="326" y="437"/>
      <point x="356" y="395"/>
      <point x="356" y="323" type="curve" smooth="yes"/>
      <point x="356" y="231" type="line" smooth="yes"/>
      <point x="356" y="159"/>
      <point x="328" y="117"/>
      <point x="281" y="117" type="curve" smooth="yes"/>
      <point x="276" y="117" type="line"/>
      <point x="156" y="396" type="line"/>
      <point x="12" y="396" type="line"/>
    </contour>
    <contour>
      <point x="71" y="-207" type="line"/>
      <point x="490" y="-207" type="line"/>
      <point x="490" y="-104" type="line"/>
      <point x="71" y="-104" type="line"/>
    </contour>
    <contour>
      <point x="490.0" y="-167.0" type="move" name="bottomright"/>
    </contour>
    <contour>
      <point x="274.0" y="558.0" type="move" name="top"/>
    </contour>
    <contour>
      <point x="500.0" y="600.0" type="move" name="topright"/>
    </contour>
  </outline>
</glyph>
<glyph name="nikhahit-thai.small" format="1">
  <advance width="0"/>
  <outline>
    <contour>
      <point x="-62" y="941" type="curve" smooth="yes" name="hr00"/>
      <point x="-88" y="941"/>
      <point x="-104" y="954"/>
      <point x="-104" y="982" type="curve" smooth="yes"/>
      <point x="-104" y="992" type="line" smooth="yes"/>
      <point x="-104" y="1020"/>
      <point x="-88" y="1033"/>
      <point x="-62" y="1033" type="curve" smooth="yes"/>
      <point x="-36" y="1033"/>
      <point x="-20" y="1020"/>
      <point x="-20" y="992" type="curve" smooth="yes"/>
      <point x="-20" y="982" type="line" smooth="yes"/>
      <point x="-20" y="954"/>
      <point x="-36" y="941"/>
    </contour>
    <contour>
      <point x="-62" y="865" type="curve" smooth="yes"/>
      <point x="18" y="865"/>
      <point x="69" y="919"/>
      <point x="69" y="987" type="curve" smooth="yes"/>
      <point x="69" y="1055"/>
      <point x="18" y="1109"/>
      <point x="-62" y="1109" type="curve" smooth="yes"/>
      <point x="-142" y="1109"/>
      <point x="-193" y="1055"/>
      <point x="-193" y="987" type="curve" smooth="yes"/>
      <point x="-193" y="919"/>
      <point x="-142" y="865"/>
    </contour>
    <contour>
      <point x="0.0" y="800.0" type="move" name="_topright"/>
    </contour>
    <contour>
      <point x="0.0" y="1097.0" type="move" name="topright"/>
    </contour>
  </outline>
</glyph>
<glyph name="nine-thai.sups" format="1">
  <advance width="537"/>
  <outline>
    <contour>
      <point x="184" y="313" type="curve" smooth="yes" name="hr00"/>
      <point x="196" y="313"/>
      <point x="216" y="314"/>
      <point x="227" y="316" type="curve"/>
      <point x="223" y="412" type="line"/>
      <point x="210" y="410"/>
      <point x="206" y="410"/>
      <point x="199" y="410" type="curve" smooth="yes"/>
      <point x="165" y="410"/>
      <point x="155" y="435"/>
      <point x="155" y="473" type="curve" smooth="yes"/>
      <point x="155" y="564" type="line" smooth="yes"/>
      <point x="155" y="589"/>
      <point x="162" y="611"/>
      <point x="183" y="611" type="curve" smooth="yes"/>
      <point x="207" y="611"/>
      <point x="218" y="587"/>
      <point x="230" y="549" type="curve" smooth="yes"/>
      <point x="300" y="320" type="line"/>
      <point x="427" y="320" type="line"/>
      <point x="357" y="542" type="line" smooth="yes"/>
      <point x="354" y="553"/>
      <point x="352" y="561"/>
      <point x="352" y="571" type="curve" smooth="yes"/>
      <point x="352" y="597"/>
      <point x="366" y="611"/>
      <point x="386" y="611" type="curve" smooth="yes"/>
      <point x="414" y="611"/>
      <point x="431" y="589"/>
      <point x="431" y="563" type="curve"/>
      <point x="532" y="570" type="line"/>
      <point x="567" y="781" type="line"/>
      <point x="453" y="781" type="line"/>
      <point x="435" y="633" type="line"/>
      <point x="431" y="633" type="line"/>
      <point x="430" y="683"/>
      <point x="414" y="710"/>
      <point x="371" y="710" type="curve" smooth="yes"/>
      <point x="341" y="710"/>
      <point x="311" y="688"/>
      <point x="311" y="641" type="curve" smooth="yes"/>
      <point x="311" y="631"/>
      <point x="313" y="619"/>
      <point x="316" y="606" type="curve"/>
      <point x="312" y="604" type="line"/>
      <point x="285" y="679"/>
      <point x="239" y="710"/>
      <point x="177" y="710" type="curve" smooth="yes"/>
      <point x="81" y="710"/>
      <point x="29" y="636"/>
      <point x="29" y="526" type="curve" smooth="yes"/>
      <point x="29" y="382"/>
      <point x="83" y="313"/>
    </contour>
  </outline>
</glyph>
<glyph name="one-thai.sups" format="1">
  <advance width="429"/>
  <outline>
    <contour>
      <point x="138" y="274" type="line" name="hr00"/>
      <point x="314" y="282"/>
      <point x="400" y="364"/>
      <point x="400" y="508" type="curve" smooth="yes"/>
      <point x="400" y="629"/>
      <point x="323" y="710"/>
      <point x="203" y="710" type="curve" smooth="yes"/>
      <point x="95" y="710"/>
      <point x="18" y="655"/>
      <point x="18" y="559" type="curve" smooth="yes"/>
      <point x="18" y="472"/>
      <point x="67" y="426"/>
      <point x="150" y="426" type="curve" smooth="yes"/>
      <point x="166" y="426"/>
      <point x="182" y="428"/>
      <point x="194" y="432" type="curve"/>
      <point x="186" y="521" type="line"/>
      <point x="178" y="520"/>
      <point x="174" y="520"/>
      <point x="166" y="520" type="curve" smooth="yes"/>
      <point x="147" y="520"/>
      <point x="138" y="530"/>
      <point x="138" y="557" type="curve" smooth="yes"/>
      <point x="138" y="565" type="line" smooth="yes"/>
      <point x="138" y="594"/>
      <point x="164" y="612"/>
      <point x="201" y="612" type="curve" smooth="yes"/>
      <point x="243" y="612"/>
      <point x="273" y="582"/>
      <point x="273" y="530" type="curve" smooth="yes"/>
      <point x="273" y="484" type="line" smooth="yes"/>
      <point x="273" y="417"/>
      <point x="241" y="379"/>
      <point x="125" y="374" type="curve"/>
    </contour>
  </outline>
</glyph>
<glyph name="ru_lakkhangyao-thai" format="1">
  <advance width="964"/>
  <outline>
    <contour>
      <point x="419" y="-200" type="line" name="hr00"/>
      <point x="567" y="-200" type="line"/>
      <point x="567" y="332" type="line" smooth="yes"/>
      <point x="567" y="352"/>
      <point x="565" y="371"/>
      <point x="561" y="389" type="curve"/>
      <point x="583" y="421"/>
      <point x="613" y="450"/>
      <point x="669" y="450" type="curve" smooth="yes"/>
      <point x="728" y="450"/>
      <point x="753" y="418"/>
      <point x="753" y="367" type="curve" smooth="yes"/>
      <point x="753" y="-200" type="line"/>
      <point x="901" y="-200" type="line"/>
      <point x="901" y="374" type="line" smooth="yes"/>
      <point x="901" y="498"/>
      <point x="825" y="566"/>
      <point x="680" y="566" type="curve" smooth="yes"/>
      <point x="593" y="566"/>
      <point x="538" y="542"/>
      <point x="498" y="500" type="curve"/>
      <point x="453" y="542"/>
      <point x="388" y="566"/>
      <point x="304" y="566" type="curve" smooth="yes"/>
      <point x="149" y="566"/>
      <point x="42" y="473"/>
      <point x="30" y="326" type="curve"/>
      <point x="117" y="291" type="line"/>
      <point x="117" y="144" type="line" smooth="yes"/>
      <point x="117" y="51"/>
      <point x="163" y="0"/>
      <point x="264" y="0" type="curve" smooth="yes"/>
      <point x="314" y="0" type="line"/>
      <point x="314" y="115" type="line"/>
      <point x="265" y="115" type="line"/>
      <point x="265" y="280" type="line" smooth="yes"/>
      <point x="265" y="328"/>
      <point x="251" y="347"/>
      <point x="203" y="366" type="curve" smooth="yes"/>
      <point x="168" y="380" type="line"/>
      <point x="187" y="419"/>
      <point x="233" y="449"/>
      <point x="295" y="449" type="curve" smooth="yes"/>
      <point x="379" y="449"/>
      <point x="419" y="399"/>
      <point x="419" y="313" type="curve" smooth="yes"/>
    </contour>
    <contour>
      <point x="494.0" y="558.0" type="move" name="top"/>
    </contour>
  </outline>
</glyph>
<glyph name="saraI-thai.narrow" format="1">
  <advance width="0"/>
  <outline>
    <contour>
      <point x="-426" y="639" type="line" name="hr00"/>
      <point x="-65" y="639" type="line"/>
      <point x="-65" y="747" type="line"/>
      <point x="-426" y="747" type="line"/>
    </contour>
    <contour>
      <point x="0.0" y="600.0" type="move" name="_topright"/>
    </contour>
    <contour>
      <point x="-65.0" y="760.0" type="move" name="topright"/>
    </contour>
  </outline>
</glyph>
<glyph name="saraIi-thai.narrow" format="1">
  <advance width="0"/>
  <outline>
    <contour>
      <point x="-426" y="639" type="line" name="hr00"/>
      <point x="-65" y="639" type="line"/>
      <point x="-65" y="835" type="line"/>
      <point x="-199" y="835" type="line"/>
      <point x="-199" y="747" type="line"/>
      <point x="-426" y="747" type="line"/>
    </contour>
    <contour>
      <point x="0.0" y="600.0" type="move" name="_topright"/>
    </contour>
    <contour>
      <point x="-65.0" y="800.0" type="move" name="topright"/>
    </contour>
  </outline>
</glyph>
<glyph name="saraUe-thai.narrow" format="1">
  <advance width="0"/>
  <outline>
    <contour>
      <point x="-424" y="639" type="line" name="hr00"/>
      <point x="-127" y="639" type="line"/>
      <point x="-59" y="643"/>
      <point x="-15" y="686"/>
      <point x="-15" y="753" type="curve" smooth="yes"/>
      <point x="-15" y="823"/>
      <point x="-63" y="867"/>
      <point x="-137" y="867" type="curve" smooth="yes"/>
      <point x="-213" y="867"/>
      <point x="-261" y="823"/>
      <point x="-261" y="753" type="curve" smooth="yes"/>
      <point x="-261" y="747" type="line"/>
      <point x="-424" y="747" type="line"/>
    </contour>
    <contour>
      <point x="-138" y="709" type="curve" smooth="yes"/>
      <point x="-164" y="709"/>
      <point x="-182" y="723"/>
      <point x="-182" y="748" type="curve" smooth="yes"/>
      <point x="-182" y="758" type="line" smooth="yes"/>
      <point x="-182" y="783"/>
      <point x="-164" y="797"/>
      <point x="-138" y="797" type="curve" smooth="yes"/>
      <point x="-112" y="797"/>
      <point x="-94" y="783"/>
      <point x="-94" y="758" type="curve" smooth="yes"/>
      <point x="-94" y="748" type="line" smooth="yes"/>
      <point x="-94" y="723"/>
      <point x="-112" y="709"/>
    </contour>
    <contour>
      <point x="0.0" y="600.0" type="move" name="_topright"/>
    </contour>
    <contour>
      <point x="-65.0" y="840.0" type="move" name="topright"/>
    </contour>
  </outline>
</glyph>
<glyph name="six-thai.sups" format="1">
  <advance width="431"/>
  <outline>
    <contour>
      <point x="206" y="311" type="curve" smooth="yes" name="hr00"/>
      <point x="325" y="311"/>
      <point x="402" y="392"/>
      <point x="402" y="512" type="curve" smooth="yes"/>
      <point x="402" y="630"/>
      <point x="341" y="710"/>
      <point x="248" y="710" type="curve" smooth="yes"/>
      <point x="189" y="710"/>
      <point x="152" y="679"/>
      <point x="138" y="633" type="curve"/>
      <point x="132" y="633" type="line"/>
      <point x="113" y="781" type="line"/>
      <point x="-1" y="781" type="line"/>
      <point x="35" y="568" type="line"/>
      <point x="136" y="561" type="line"/>
      <point x="149" y="587"/>
      <point x="168" y="612"/>
      <point x="210" y="612" type="curve" smooth="yes"/>
      <point x="246" y="612"/>
      <point x="275" y="594"/>
      <point x="275" y="553" type="curve" smooth="yes"/>
      <point x="275" y="470" type="line" smooth="yes"/>
      <point x="275" y="429"/>
      <point x="244" y="411"/>
      <point x="201" y="411" type="curve" smooth="yes"/>
      <point x="161" y="411"/>
      <point x="138" y="435"/>
      <point x="124" y="473" type="curve"/>
      <point x="33" y="428" type="line"/>
      <point x="59" y="353"/>
      <point x="119" y="311"/>
    </contour>
  </outline>
</glyph>
<glyph name="thanthakhat-thai.narrow" format="1">
  <advance width="0"/>
  <outline>
    <contour>
      <point x="-379" y="640" type="line" name="hr00"/>
      <point x="-256" y="640" type="line"/>
      <point x="-256" y="718" type="line"/>
      <point x="-65" y="718" type="line"/>
      <point x="-65" y="836" type="line"/>
      <point x="-252" y="836" type="line" smooth="yes"/>
      <point x="-333" y="836"/>
      <point x="-379" y="796"/>
      <point x="-379" y="722" type="curve" smooth="yes"/>
    </contour>
    <contour>
      <point x="0.0" y="600.0" type="move" name="_topright"/>
    </contour>
  </outline>
</glyph>
<glyph name="thanthakhat-thai.small" format="1">
  <advance width="0"/>
  <outline>
    <contour>
      <point x="-249" y="878" type="line" name="hr00"/>
      <point x="-148" y="878" type="line"/>
      <point x="-148" y="942" type="line"/>
      <point x="42" y="942" type="line"/>
      <point x="42" y="1040" type="line"/>
      <point x="-144" y="1040" type="line" smooth="yes"/>
      <point x="-212" y="1040"/>
      <point x="-249" y="1007"/>
      <point x="-249" y="946" type="curve" smooth="yes"/>
    </contour>
    <contour>
      <point x="0.0" y="800.0" type="move" name="_topright"/>
    </contour>
  </outline>
</glyph>
<glyph name="thoThan-thai.less" format="1">
  <advance width="635"/>
  <outline>
    <contour>
      <point x="186" y="0" type="line" name="hr00"/>
      <point x="301" y="0" type="line" smooth="yes"/>
      <point x="439" y="0"/>
      <point x="527" y="105"/>
      <point x="527" y="280" type="curve" smooth="yes"/>
      <point x="527" y="350"/>
      <point x="511" y="409"/>
      <point x="482" y="455" type="curve"/>
      <point x="482" y="461" type="line"/>
      <point x="626" y="461" type="line"/>
      <point x="626" y="583" type="line"/>
      <point x="504" y="583" type="line" smooth="yes"/>
      <point x="458" y="583"/>
      <point x="427" y="563"/>
      <point x="419" y="521" type="curve"/>
      <point x="376" y="550"/>
      <point x="321" y="566"/>
      <point x="256" y="566" type="curve" smooth="yes"/>
      <point x="124" y="566"/>
      <point x="49" y="508"/>
      <point x="6" y="444" type="curve"/>
      <point x="96" y="364" type="line"/>
      <point x="118" y="396"/>
      <point x="165" y="449"/>
      <point x="249" y="449" type="curve" smooth="yes"/>
      <point x="327" y="449"/>
      <point x="373" y="403"/>
      <point x="373" y="326" type="curve" smooth="yes"/>
      <point x="373" y="234" type="line" smooth="yes"/>
      <point x="373" y="156"/>
      <point x="345" y="110"/>
      <point x="304" y="110" type="curve" smooth="yes"/>
      <point x="277" y="110" type="line"/>
      <point x="226" y="255" type="line" smooth="yes"/>
      <point x="210" y="300"/>
      <point x="184" y="319"/>
      <point x="134" y="319" type="curve" smooth="yes"/>
      <point x="58" y="319" type="line"/>
      <point x="58" y="204" type="line"/>
      <point x="111" y="204" type="line"/>
    </contour>
    <contour>
      <point x="498.0" y="0.0" type="move" name="bottomright"/>
    </contour>
    <contour>
      <point x="268.0" y="558.0" type="move" name="top"/>
    </contour>
    <contour>
      <point x="498.0" y="600.0" type="move" name="topright"/>
    </contour>
  </outline>
</glyph>
<glyph name="toPatak-thai.short" format="1">
  <advance width="647"/>
  <outline>
    <contour>
      <point x="129" y="-180" type="line" name="hr00"/>
      <point x="175" y="-180" type="line" smooth="yes"/>
      <point x="247" y="-180"/>
      <point x="272" y="-140"/>
      <point x="285" y="-95" type="curve"/>
      <point x="291" y="-95" type="line"/>
      <point x="303" y="-141"/>
      <point x="354" y="-180"/>
      <point x="429" y="-180" type="curve" smooth="yes"/>
      <point x="529" y="-180"/>
      <point x="584" y="-119"/>
      <point x="584" y="-9" type="curve" smooth="yes"/>
      <point x="584" y="332" type="line" smooth="yes"/>
      <point x="584" y="472"/>
      <point x="485" y="566"/>
      <point x="321" y="566" type="curve" smooth="yes"/>
      <point x="164" y="566"/>
      <point x="55" y="473"/>
      <point x="43" y="326" type="curve"/>
      <point x="130" y="291" type="line"/>
      <point x="130" y="115" type="line"/>
      <point x="81" y="115" type="line"/>
      <point x="81" y="0" type="line"/>
      <point x="131" y="0" type="line" smooth="yes"/>
      <point x="232" y="0"/>
      <point x="278" y="51"/>
      <point x="278" y="144" type="curve" smooth="yes"/>
      <point x="278" y="280" type="line" smooth="yes"/>
      <point x="278" y="328"/>
      <point x="264" y="347"/>
      <point x="216" y="366" type="curve" smooth="yes"/>
      <point x="181" y="380" type="line"/>
      <point x="201" y="419"/>
      <point x="248" y="449"/>
      <point x="311" y="449" type="curve" smooth="yes"/>
      <point x="395" y="449"/>
      <point x="436" y="399"/>
      <point x="436" y="313" type="curve" smooth="yes"/>
      <point x="436" y="-12" type="line" smooth="yes"/>
      <point x="436" y="-48"/>
      <point x="418" y="-65"/>
      <point x="391" y="-65" type="curve" smooth="yes"/>
      <point x="352" y="-65"/>
      <point x="341" y="-34"/>
      <point x="338" y="0" type="curve"/>
      <point x="237" y="0" type="line"/>
      <point x="234" y="-40"/>
      <point x="221" y="-65"/>
      <point x="175" y="-65" type="curve" smooth="yes"/>
      <point x="129" y="-65" type="line"/>
    </contour>
    <contour>
      <point x="584.0" y="-132.0" type="move" name="bottomright"/>
    </contour>
    <contour>
      <point x="315.0" y="558.0" type="move" name="top"/>
    </contour>
    <contour>
      <point x="584.0" y="600.0" type="move" name="topright"/>
    </contour>
  </outline>
</glyph>
<glyph name="two-thai.sups" format="1">
  <advance width="631"/>
  <outline>
    <contour>
      <point x="317" y="310" type="curve" smooth="yes" name="hr00"/>
      <point x="569" y="310"/>
      <point x="582" y="427"/>
      <point x="582" y="486" type="curve" smooth="yes"/>
      <point x="582" y="599" type="line" smooth="yes"/>
      <point x="582" y="663"/>
      <point x="549" y="710"/>
      <point x="483" y="710" type="curve" smooth="yes"/>
      <point x="441" y="710"/>
      <point x="408" y="692"/>
      <point x="398" y="653" type="curve"/>
      <point x="392" y="653" type="line"/>
      <point x="383" y="692"/>
      <point x="347" y="710"/>
      <point x="307" y="710" type="curve" smooth="yes"/>
      <point x="240" y="710"/>
      <point x="208" y="659"/>
      <point x="208" y="578" type="curve" smooth="yes"/>
      <point x="208" y="495"/>
      <point x="242" y="446"/>
      <point x="330" y="446" type="curve" smooth="yes"/>
      <point x="343" y="446"/>
      <point x="359" y="447"/>
      <point x="377" y="451" type="curve"/>
      <point x="368" y="527" type="line"/>
      <point x="364" y="526"/>
      <point x="358" y="525"/>
      <point x="352" y="525" type="curve" smooth="yes"/>
      <point x="327" y="525"/>
      <point x="323" y="540"/>
      <point x="323" y="556" type="curve" smooth="yes"/>
      <point x="323" y="590" type="line" smooth="yes"/>
      <point x="323" y="606"/>
      <point x="329" y="611"/>
      <point x="338" y="611" type="curve" smooth="yes"/>
      <point x="348" y="611"/>
      <point x="355" y="604"/>
      <point x="355" y="572" type="curve"/>
      <point x="430" y="572" type="line"/>
      <point x="430" y="604"/>
      <point x="437" y="611"/>
      <point x="447" y="611" type="curve" smooth="yes"/>
      <point x="454" y="611"/>
      <point x="461" y="608"/>
      <point x="461" y="592" type="curve" smooth="yes"/>
      <point x="461" y="491" type="line" smooth="yes"/>
      <point x="461" y="468"/>
      <point x="456" y="448"/>
      <point x="442" y="433" type="curve" smooth="yes"/>
      <point x="429" y="419"/>
      <point x="409" y="408"/>
      <point x="367" y="408" type="curve" smooth="yes"/>
      <point x="267" y="408" type="line" smooth="yes"/>
      <point x="225" y="408"/>
      <point x="205" y="419"/>
      <point x="192" y="433" type="curve" smooth="yes"/>
      <point x="178" y="448"/>
      <point x="173" y="468"/>
      <point x="173" y="491" type="curve" smooth="yes"/>
      <point x="173" y="781" type="line"/>
      <point x="52" y="781" type="line"/>
      <point x="52" y="486" type="line" smooth="yes"/>
      <point x="52" y="427"/>
      <point x="65" y="310"/>
    </contour>
  </outline>
</glyph>
<glyph name="yamakkan-thai.narrow" format="1">
  <advance width="0"/>
  <outline>
    <contour>
      <point x="-122" y="645" type="curve" smooth="yes" name="hr00"/>
      <point x="-65" y="645" type="line"/>
      <point x="-65" y="724" type="line"/>
      <point x="-90" y="724" type="line" smooth="yes"/>
      <point x="-128" y="724"/>
      <point x="-144" y="736"/>
      <point x="-144" y="754" type="curve" smooth="yes"/>
      <point x="-144" y="774"/>
      <point x="-126" y="783"/>
      <point x="-91" y="783" type="curve" smooth="yes"/>
      <point x="-52" y="783" type="line"/>
      <point x="-52" y="838" type="line"/>
      <point x="-74" y="838" type="line" smooth="yes"/>
      <point x="-100" y="838"/>
      <point x="-117" y="849"/>
      <point x="-117" y="868" type="curve" smooth="yes"/>
      <point x="-117" y="886"/>
      <point x="-100" y="897"/>
      <point x="-70" y="897" type="curve" smooth="yes"/>
      <point x="-52" y="897"/>
      <point x="-37" y="891"/>
      <point x="-26" y="886" type="curve"/>
      <point x="0" y="958" type="line"/>
      <point x="-19" y="967"/>
      <point x="-53" y="975"/>
      <point x="-89" y="975" type="curve" smooth="yes"/>
      <point x="-170" y="975"/>
      <point x="-212" y="934"/>
      <point x="-212" y="893" type="curve" smooth="yes"/>
      <point x="-212" y="853"/>
      <point x="-181" y="826"/>
      <point x="-119" y="817" type="curve"/>
      <point x="-119" y="813" type="line"/>
      <point x="-212" y="813"/>
      <point x="-246" y="768"/>
      <point x="-246" y="725" type="curve" smooth="yes"/>
      <point x="-246" y="677"/>
      <point x="-207" y="645"/>
    </contour>
    <contour>
      <point x="0.0" y="600.0" type="move" name="_topright"/>
    </contour>
  </outline>
</glyph>
<glyph name="yoYing-thai_macronbelowcomb" format="1">
  <advance width="924"/>
  <outline>
    <contour>
      <point x="634" y="-12" type="curve" smooth="yes" name="hr00"/>
      <point x="783" y="-12"/>
      <point x="861" y="66"/>
      <point x="861" y="198" type="curve" smooth="yes"/>
      <point x="861" y="554" type="line"/>
      <point x="713" y="554" type="line"/>
      <point x="713" y="209" type="line" smooth="yes"/>
      <point x="713" y="149"/>
      <point x="692" y="108"/>
      <point x="634" y="108" type="curve" smooth="yes"/>
      <point x="576" y="108"/>
      <point x="554" y="148"/>
      <point x="554" y="209" type="curve" smooth="yes"/>
      <point x="554" y="332" type="line" smooth="yes"/>
      <point x="554" y="465"/>
      <point x="463" y="566"/>
      <point x="292" y="566" type="curve" smooth="yes"/>
      <point x="145" y="566"/>
      <point x="42" y="473"/>
      <point x="30" y="326" type="curve"/>
      <point x="117" y="291" type="line"/>
      <point x="117" y="144" type="line" smooth="yes"/>
      <point x="117" y="51"/>
      <point x="163" y="0"/>
      <point x="264" y="0" type="curve" smooth="yes"/>
      <point x="314" y="0" type="line"/>
      <point x="314" y="115" type="line"/>
      <point x="265" y="115" type="line"/>
      <point x="265" y="280" type="line" smooth="yes"/>
      <point x="265" y="328"/>
      <point x="251" y="347"/>
      <point x="203" y="366" type="curve" smooth="yes"/>
      <point x="167" y="380" type="line"/>
      <point x="186" y="419"/>
      <point x="229" y="449"/>
      <point x="289" y="449" type="curve" smooth="yes"/>
      <point x="373" y="449"/>
      <point x="406" y="400"/>
      <point x="406" y="313" type="curve" smooth="yes"/>
      <point x="406" y="198" type="line" smooth="yes"/>
      <point x="406" y="66"/>
      <point x="484" y="-12"/>
    </contour>
    <contour>
      <point x="117" y="-207" type="line"/>
      <point x="861" y="-207" type="line"/>
      <point x="861" y="-104" type="line"/>
      <point x="117" y="-104" type="line"/>
    </contour>
    <contour>
      <point x="861.0" y="-167.0" type="move" name="bottomright"/>
    </contour>
    <contour>
      <point x="480.0" y="558.0" type="move" name="top"/>
    </contour>
    <contour>
      <point x="861.0" y="600.0" type="move" name="topright"/>
    </contour>
  </outline>
</glyph>
